<svg version="1.2" xmlns="http://www.w3.org/2000/svg" viewBox="0 0 250 249" width="250" height="249">
	<title>Logo_Luton_Town_2009_FC-svg</title>
	<defs>
		<linearGradient id="g1" x1="137.7" y1="106.8" x2="161.2" y2="106.8" gradientUnits="userSpaceOnUse">
			<stop offset="0" stop-color="#ffefaf"/>
			<stop offset=".005" stop-color="#ffefaf"/>
			<stop offset="1" stop-color="#ffcd16"/>
		</linearGradient>
		<linearGradient id="g2" x1="139.6" y1="116.4" x2="158.2" y2="116.4" gradientUnits="userSpaceOnUse">
			<stop offset="0" stop-color="#ffefaf"/>
			<stop offset=".005" stop-color="#ffefaf"/>
			<stop offset="1" stop-color="#ffcd16"/>
		</linearGradient>
		<linearGradient id="g3" x1="89.9" y1="106.7" x2="108" y2="106.7" gradientUnits="userSpaceOnUse">
			<stop offset="0" stop-color="#ffefaf"/>
			<stop offset=".005" stop-color="#ffefaf"/>
			<stop offset="1" stop-color="#ffcd16"/>
		</linearGradient>
		<linearGradient id="g4" x1="120.6" y1="136.4" x2="129.7" y2="136.4" gradientUnits="userSpaceOnUse">
			<stop offset="0" stop-color="#ffefaf"/>
			<stop offset="1" stop-color="#f28c00"/>
		</linearGradient>
		<linearGradient id="g5" x1="148.8" y1="52.2" x2="170.9" y2="52.2" gradientUnits="userSpaceOnUse">
			<stop offset="0" stop-color="#042453"/>
			<stop offset="1" stop-color="#002e5f"/>
		</linearGradient>
		<linearGradient id="g6" x1="96.7" y1="58.5" x2="157.7" y2="58.5" gradientUnits="userSpaceOnUse">
			<stop offset="0" stop-color="#ffefaf"/>
			<stop offset=".005" stop-color="#ffefaf"/>
			<stop offset="1" stop-color="#ffcd16"/>
		</linearGradient>
		<linearGradient id="g7" x1="96.7" y1="58.5" x2="157.7" y2="58.5" gradientUnits="userSpaceOnUse">
			<stop offset="0" stop-color="#ffefaf"/>
			<stop offset=".005" stop-color="#ffefaf"/>
			<stop offset="1" stop-color="#ffcd16"/>
		</linearGradient>
		<linearGradient id="g8" x1="96.7" y1="58.5" x2="157.7" y2="58.5" gradientUnits="userSpaceOnUse">
			<stop offset="0" stop-color="#ffefaf"/>
			<stop offset=".005" stop-color="#ffefaf"/>
			<stop offset="1" stop-color="#ffcd16"/>
		</linearGradient>
		<linearGradient id="g9" x1="105.3" y1="64.2" x2="147.3" y2="56" gradientUnits="userSpaceOnUse">
			<stop offset="0" stop-color="#002e5f"/>
			<stop offset=".129" stop-color="#002e5f"/>
			<stop offset=".258" stop-color="#a4bde4"/>
			<stop offset=".418" stop-color="#002e5f"/>
			<stop offset=".778" stop-color="#002e5f"/>
			<stop offset="1" stop-color="#002e5f"/>
		</linearGradient>
	</defs>
	<style>
		.s0 { fill: #002d62 } 
		.s1 { fill: #ffffff } 
		.s2 { fill: #f28c00 } 
		.s3 { fill: #002e5f } 
		.s4 { fill: none;stroke: #000000;stroke-width: 1 } 
		.s5 { fill: #b3b3b3;stroke: #000000;stroke-linecap: round;stroke-width: 1.2 } 
		.s6 { fill: #000000 } 
		.s7 { fill: #ffefaf } 
		.s8 { fill: url(#g1) } 
		.s9 { fill: url(#g2) } 
		.s10 { fill: url(#g3) } 
		.s11 { fill: #a71681 } 
		.s12 { fill: #95c11f } 
		.s13 { fill: url(#g4) } 
		.s14 { fill: url(#g5) } 
		.s15 { fill: url(#g6) } 
		.s16 { fill: url(#g7) } 
		.s17 { fill: url(#g8) } 
		.s18 { fill: url(#g9) } 
	</style>
	<g id="g10">
		<g id="g7947">
			<g id="g7466">
				<path id="path626" fill-rule="evenodd" class="s0" d="m41.5 77.2l-24-16 3.1-4.6 19.9 13.3 4.9-7.4 4 2.7zm-6.4-38.7l14.1 14.4c1.9 2 3.7 2.1 5.6 0.3 2-1.9 1.8-3.8-0.1-5.7l-14-14.5 3.9-3.8 14.1 14.4c4.4 4.6 3.6 9.1-0.5 13.1-4 3.9-8.5 4.6-13 0.1l-14-14.5zm31.5-24.1l2.6 4.2-5.4 3.4 12.6 20.3-4.6 2.9-12.7-20.3-5.4 3.4-2.6-4.1zm9.5 5.5c-2.4-6.6 0.2-10.3 5.2-12.2 5-1.9 9.4-0.8 11.9 5.9l3.6 9.6c2.4 6.7-0.2 10.4-5.2 12.3-5 1.8-9.4 0.7-11.9-5.9zm9 8.4c1.1 3 2.7 3.3 4.8 2.5 2-0.7 3-2 1.9-5l-4-11c-1.2-3-2.8-3.3-4.8-2.6-2.1 0.8-3.1 2.1-2 5.1zm18.6 2.6l-3.5-28.5 6-0.8 9.6 16h0.1l-2.1-16.9 5-0.6 3.5 28.6-5.2 0.6-10.6-17.4h-0.1l2.3 18.4zm53.9-26.6l-1 4.8-6.3-1.2-4.5 23.4-5.4-1 4.5-23.5-6.3-1.2 1-4.8zm3.2 10.6c2.7-6.5 7.2-7.5 12.1-5.4 4.9 2.1 7.4 5.9 4.7 12.4l-4 9.5c-2.7 6.6-7.2 7.5-12.1 5.4-4.9-2-7.4-5.8-4.7-12.4zm0.9 12.3c-1.3 2.9-0.3 4.3 1.7 5.1 2 0.9 3.7 0.6 4.9-2.4l4.5-10.8c1.2-2.9 0.3-4.3-1.7-5.1-2.1-0.9-3.7-0.6-4.9 2.4zm28.4-9.6l4 3.1-8.7 17.2h0.1l14.8-12.3 4.1 3.3-8.6 17.3h0.1l14.7-12.3 4 3.2-22.8 18.6-4.2-3.3 9.1-17.9v-0.1l-15.7 12.7-4.1-3.3zm7.8 44.7l23.6-16.5 3.4 4.9-9.5 16.1 14-9.8 2.9 4.2-23.6 16.5-3-4.3 10.4-17.6h-0.1l-15.2 10.6z"/>
			</g>
			<g id="g7452">
				<path id="path662" fill-rule="evenodd" class="s0" d="m16.4 185.1l24.4-15.3 7.3 11.7-3.6 2.3-4.7-7.5-6.3 4 3.5 5.6-3.6 2.3-3.5-5.7-10.9 6.8zm28.5 3.7c3-2.8 7.1-3.3 10.6 0.5 3.5 3.8 2.7 7.8-0.2 10.6l-10.9 10.1c-3 2.8-7 3.3-10.6-0.5-3.5-3.8-2.7-7.8 0.3-10.6zm-7.4 13.6c-1.6 1.5-1.9 2.7-0.6 4.1 1.4 1.5 2.6 1.2 4.1-0.2l10.7-10c1.6-1.4 1.9-2.6 0.6-4-1.4-1.5-2.6-1.3-4.1 0.2zm21.8 1.1c2.4-3.3 6.3-4.6 10.5-1.6 4.2 3 4.2 7.1 1.9 10.4l-8.7 12.1c-2.3 3.3-6.2 4.6-10.4 1.6-4.2-3-4.3-7.1-1.9-10.4zm-4.5 14.8c-1.3 1.8-1.4 3 0.3 4.1 1.6 1.2 2.7 0.7 4-1l8.4-11.9c1.3-1.7 1.4-3-0.2-4.1-1.7-1.2-2.8-0.7-4 1.1zm25.1-4.8l-4.3-2.1 1.9-3.8 13.1 6.2-1.9 3.9-4.3-2.1-10.5 22.1-4.5-2.1zm13 1.2l7.1 1.9c5.1 1.4 6.7 4.6 5.5 9.3-0.7 2.4-2.3 4.6-4.9 5 2.1 1.7 3.1 4 2.1 7.6-1.2 4.6-4.2 7.5-9.6 6l-7.6-2zm-1.5 25.2l2 0.5c2.5 0.7 3.8-0.5 4.6-3.3 0.7-2.9 0-4.6-2.8-5.3l-1.6-0.5zm3.3-12.4l1.8 0.4c1.8 0.5 3.5-0.4 4.1-2.7 0.7-2.6 0.1-4.2-2.1-4.7l-1.8-0.5zm15 20.4l-4.7-0.5 7.9-28.2 6.1 0.6 2.6 29.2-4.7-0.5-0.3-6.4-5.4-0.5zm2.6-10.5l3.9 0.4-0.8-12.5h-0.1zm15.8 11.4l-2.1-28.7 5-0.4 1.7 24.5 7.7-0.6 0.3 4.3zm18.8-1.9l-6.4-28.1 4.9-1.1 5.4 23.9 7.6-1.7 0.9 4.2zm28.3-30.3l-1-1.9c-1.1-2.2-2.6-2.6-3.7-2-1.8 0.9-1.9 2.1-0.9 4l6.8 13c1 1.9 2 2.5 3.8 1.6 1.6-0.8 1.6-2 0.8-3.7l-1.6-3.1 4.3-2.3 1.6 3c1.8 3.6 1.2 7.6-3.1 9.9-4.6 2.4-8.3 0.6-10.2-3l-6.8-13.2c-1.9-3.6-1.3-7.6 3.3-10 4.4-2.3 8.2-0.2 10.2 3.6l0.9 1.9zm20.8 9.7l-17.6-22.8 3.9-3 15 19.3 6.2-4.7 2.6 3.4zm-7.2-30.9l3.4-3.6 15.9 14.9c1.5 1.5 2.8 1.6 4.1 0.3 1.2-1.3 1-2.7-0.5-4.1l-15.9-14.9 3.4-3.6 15.7 14.8c3.6 3.3 3.6 7.3 0.4 10.7-3.2 3.4-7.2 3.7-10.8 0.3zm12.9-14.3l3.9-6.3c2.8-4.5 6.3-5.1 10.5-2.5 2.1 1.3 3.7 3.6 3.3 6.1 2.3-1.5 4.7-1.8 7.9 0.2 4 2.5 6 6.2 3 11l-4.1 6.6zm12.6 2l1-1.5c1-1.6 0.6-3.5-1.4-4.8-2.3-1.4-4-1.2-5.2 0.6l-0.9 1.6zm11 6.8l1.1-1.7c1.3-2.3 0.5-3.9-1.9-5.4-2.5-1.6-4.4-1.4-5.9 1.1l-0.9 1.4z"/>
			</g>
			<g id="g7447">
				<path id="path710" class="s0" d="m0 130.2c1 0 1.7-0.2 1.7-1.7v-9.5c0-1.5-0.7-1.7-1.7-1.7v-0.4h8.7l0.1 2.5h-0.5c-0.2-1.2-0.8-1.7-2.2-1.7h-1.7c-1 0-1 0.2-1 1.7v3.6h2.4c1.3 0 1.8-0.3 1.8-1.7h0.4v4.3h-0.4c0-1.2-0.5-1.8-1.8-1.8h-2.4v4.3c0 1.6 0.1 1.7 1 1.7h1.8c1.5 0 2.1-0.5 2.4-1.9h0.5l-0.2 2.7h-8.9zm18.3-10.3c-0.1-1.1-0.9-2.4-3-2.4-1.2 0-2.4 0.9-2.4 2.2 0 1.9 2.3 2.5 4 3.5 1.5 1 2.5 1.8 2.5 3.8 0 2.6-2.1 3.8-4.7 3.8-1.3 0-2.8-0.3-3.3-0.4l-0.1-2.9h0.4c0.2 1.1 1.1 2.4 3.1 2.4 1.7 0 2.8-1.2 2.8-2.6 0-2.2-3.2-2.9-4.9-4.4-0.9-0.7-1.3-1.4-1.3-2.7 0-2.5 1.9-3.5 4.3-3.5 1.3 0 2.1 0.2 3 0.4l0.1 2.8zm4.2 10.3c1.2 0 1.8-0.2 1.8-1.7v-10.8h-1.1c-2 0-2.3 0.9-2.4 2h-0.5l0.1-2.8h9.6l0.1 2.8h-0.5c-0.1-1.3-0.6-2-2.5-2h-1.1v10.8c0 1.5 0.7 1.7 1.9 1.7v0.4h-5.4z"/>
			</g>
			<g id="g7441">
				<path id="path722" fill-rule="evenodd" class="s0" d="m213.9 130.2c1.6 0 1.9-0.2 1.9-2.2v-6.8c0-1.1-0.2-1.6-1-1.6-0.3 0-0.9 0.2-1.1 0.3v-0.4l3-1.7h0.6v10.2c0 2 0.4 2.2 1.5 2.2v0.4h-4.9zm8-3c0-2.2 1.1-2.9 2.3-3.2v-0.1c-1.1-0.3-2.1-1-2.1-2.9 0-2 1.5-3.3 3.6-3.3 2.1 0 3.5 1.2 3.5 3.3 0 2-1.2 2.7-2.1 2.9v0.1c1.1 0.3 2.4 1 2.4 3.2 0 2.6-1.6 3.5-3.8 3.5-2.4 0-3.8-1.3-3.8-3.5zm3.8 2.7c1.4 0 2.1-1.2 2.1-2.7 0-1.6-0.7-2.8-2.1-2.8-1.5 0-2.1 1.2-2.1 2.8 0 1.5 0.6 2.7 2.1 2.7zm0-6.4c1.4 0 1.8-1.1 1.8-2.5 0-1.3-0.5-2.4-1.8-2.4-1.3 0-1.9 1.2-1.9 2.4 0 1.3 0.5 2.5 1.9 2.5zm6.5 3.7c0-2.2 1.1-2.9 2.3-3.2v-0.1c-1.1-0.3-2.1-1-2.1-2.9 0-2 1.5-3.3 3.6-3.3 2.1 0 3.5 1.2 3.5 3.3 0 2-1.2 2.7-2.1 2.9v0.1c1.1 0.3 2.4 1 2.4 3.2 0 2.6-1.6 3.5-3.8 3.5-2.4 0-3.8-1.3-3.8-3.5zm3.8 2.7c1.4 0 2.1-1.2 2.1-2.7 0-1.6-0.7-2.8-2.1-2.8-1.5 0-2.1 1.2-2.1 2.8 0 1.5 0.6 2.7 2.1 2.7zm0-6.4c1.4 0 1.8-1.1 1.8-2.5 0-1.3-0.5-2.4-1.8-2.4-1.3 0-1.9 1.2-1.9 2.4 0 1.3 0.5 2.5 1.9 2.5zm8.3 0c0.3-0.1 1.1-0.6 2.3-0.6 1.9 0 3.4 1.4 3.4 3.5 0 3-2.4 4.3-4.8 4.3-1.4 0-2.4-0.3-2.8-0.3v-0.9c0.7 0.2 1.2 0.4 2.1 0.4 2 0 3.8-1.2 3.8-3.6 0-1.1-0.8-2.5-2.3-2.5-1.1 0-1.7 0.7-2.1 1.1h-1l0.3-7h6v1h-4.6z"/>
			</g>
		</g>
		<g id="g4631">
			<g id="g4497">
				<path id="path4485" fill-rule="evenodd" class="s1" d="m101.9 81.4l-14.2 7.1-12.9-3.3-5.2 10.6 7.7 3.2 3 16.3-4.7 12.1-8.5 6.9 5.6 8.4 1.8 25.5 5.8 13 11.5 4.2 7.1-1 4.1 7.9 15.5 7.6 6.5 7.5 6.5-7.5 15.4-7.6 4.2-7.9 7 1 11.5-4.2 5.9-13 1.8-25.5 5.5-8.4-8.4-6.9-4.8-12.1 3.1-16.3 7.7-3.2-5.3-10.6-12.8 3.3-14.3-7.1-10.7 0.2-3.2 3.8h-9.1-9.1l-3.2-3.8z"/>
				<g id="g4490">
					<path id="path56" fill-rule="evenodd" class="s2" d="m74.8 125.3l40.8-0.1v-42.9c0 0-5.8-3.1-10.2-0.9-4.3 2.3-13.4 6-21.5 5.3-5-0.3-5.5-1.5-5.5-1.5l-6.8 11.8c0 0 9 5.6 9.4 9.2 0 0 3 6.6-0.2 11.8-3.2 5.1-6 7.3-6 7.3z"/>
					<path id="path60" fill-rule="evenodd" class="s3" d="m175.9 125.3l-41.5-0.1v-44.1c0 0 5.8-1.9 10.2 0.3 4.4 2.3 13.4 6 21.6 5.3 4.9-0.3 5.5-1.5 5.5-1.5l6.8 11.8c0 0-9.1 5.6-9.5 9.2 0 0-3 6.6 0.2 11.8 3.2 5.1 6.7 7.3 6.7 7.3z"/>
					<path id="path64" fill-rule="evenodd" class="s3" d="m115.4 198.8v-54.6l-44.7-0.2c0 0 3.5 8.4 3.7 18.4 0.2 10.1 1.5 18 16.6 21.4 10.8 2.5 24.4 15 24.4 15z"/>
					<path id="path68" fill-rule="evenodd" class="s2" d="m134.5 197.2v-53l44.8-0.2c0 0-3.7 8.4-3.9 18.4-0.1 10.1-1.4 18-16.6 21.4-10.8 2.5-24.3 13.4-24.3 13.4z"/>
					<path id="path76" fill-rule="evenodd" class="s4" d="m180.8 133.8l-4.7-8.6h-41.4v-38.8h-19.3v38.8h-41.1l-4.6 8.3 3 10.9h42.7v54.7l9.7 4.9 9.6-4.9v-54.7h43.1z"/>
				</g>
				<path id="path742" fill-rule="evenodd" class="s5" d="m125.5 83.1c0 0 5.8 0.1 6.5-0.3 0.7-0.3 2.9-4.6 13-4 10.2 0.5 15 5.5 18.9 6.4 3.9 0.8 4.3 0.2 4.3 0.2 0 0-1.9-3.5 1.7-5.4 3.5-1.9 6.3 2 6.8 3.5 0.6 1.6 1.2 3.8 1.9 4.9 0.6 1.1 4.6 4.6 5.5 6.5 0.9 1.9 0.1 4.9-1.1 5.5-4.6 2.3-6.2-1.4-6.2-1.4 0 0-5.6 3.5-3.1 15.4 2.6 12 8.2 16.8 8.2 16.8 0 0-3.1-4.1 1.9-6.1 2.7-1.1 4.9 2 5.2 3.1 0.7 3.4-1.3 5.9-3.8 7.8-2.5 1.8-7.3 5-6.6 18.1 0.6 13 1.8 20.1-5.8 28.3-7.5 8.1-20.8 4.9-20.8 4.9 0 0-2.7 6.3-7 9.5-5.7 4.3-13.8 4.1-16.1 8.9-0.2 0.4 2.3 6.9-3.8 6.9h-0.3c-6.1 0-3.5-6.5-3.7-6.9-2.4-4.8-10.4-4.6-16.2-8.9-4.2-3.2-6.9-9.5-6.9-9.5 0 0-13.4 3.2-20.9-4.9-7.5-8.2-6.4-15.3-5.7-28.3 0.6-13.1-4.1-16.3-6.7-18.1-2.5-1.9-4.5-4.4-3.7-7.8 0.3-1.1 2.4-4.2 5.2-3.1 4.9 2 1.9 6.1 1.9 6.1 0 0 5.6-4.8 8.1-16.8 2.6-11.9-3.1-15.4-3.1-15.4 0 0-1.5 3.7-6.1 1.4-1.2-0.6-2-3.6-1.2-5.5 0.9-1.9 4.9-5.4 5.6-6.5 0.6-1.1 1.3-3.3 1.8-4.9 0.6-1.5 3.4-5.4 6.9-3.5 3.5 1.9 1.6 5.4 1.6 5.4 0 0 0.5 0.6 4.4-0.2 3.8-0.9 8.7-5.9 18.8-6.4 10.2-0.6 12.4 3.7 13.1 4 0.6 0.4 6.5 0.3 6.5 0.3zm-1 4.6l-5.3 0.1c0 0-2.8 3.8-6.2 1.3-2.8-2-0.1-4.8-0.1-4.8 0 0-0.1-1.2-4-1.2-5 0-11.4 6.4-19 7.5-7.7 1.1-12.8-2.7-12.8-2.7 0 0-0.3 1.9-0.9 3-0.7 1.1-1.9 2.2-1.9 2.2 0 0 11 3.3 8.9 22.2-1.6 15-12.9 20-12.9 20 0 0 4.7 3 6.2 11.5 1.1 6.2-0.1 15.9 1.5 22.4 1.2 4.7 4.1 11.3 12 12.9 7.8 1.7 8.5-1.6 10.7-0.6 2.2 1 0.2 4.8 5.6 9 1.7 1.4 8.3 3.5 11.7 5.7 2.3 1.4 6.9 7.3 6.9 7.3v-0.1c0 0 4.7-5.8 6.9-7.2 3.5-2.2 10-4.3 11.7-5.7 5.4-4.2 3.5-8 5.7-9 2.2-1 2.8 2.3 10.7 0.6 7.8-1.6 10.7-8.2 11.9-12.9 1.7-6.5 0.4-16.2 1.5-22.4 1.6-8.5 6.2-11.5 6.2-11.5 0 0-11.2-5-12.9-20-2.1-18.9 9-22.2 9-22.2 0 0-1.3-1.1-1.9-2.2-0.7-1.1-0.9-3-0.9-3 0 0-5.2 3.8-12.8 2.7-7.6-1.1-14-7.5-19-7.5-4 0-4.1 1.2-4.1 1.2 0 0 2.7 2.8-0.1 4.8-3.3 2.5-6.2-1.3-6.2-1.3l-5.3-0.1c0 0-0.8 0-0.8 0z"/>
				<g id="g7667">
					<g id="g7539">
						<path id="path80" fill-rule="evenodd" class="s6" d="m152.9 96.8c1.4 0.1 3 1.6 2.5 3 1 0.1 2 0.5 2.7 1.1 0.7 0.7 1.2 2 0.9 3 0.9 0.9 2.8 1.7 2.5 3.7-0.1 0.5-0.4 0.8-0.7 1.1 0.9 0.8 1.7 2.7 0.7 4 0.4 0.7 0.8 1.5 0.5 2.4-0.2 0.6-0.7 1.1-0.6 1.6-1.2 0.8-3 0.8-4.9 1.1-1.2 0.2-2.5 0.6-3.9 0.7-2.7 0.1-5.5 0.2-8.4 0-0.5 0-1.1-0.2-1.6-0.2-1-0.2-2.2-0.3-2.9-0.5-0.5-0.2-1.2-0.8-1.7-1.2-0.4-0.3-0.8-0.4-1-0.9-0.5-1.2 0.1-2.4 0.7-3-1.2-1.4 0-3.3 1.1-4-0.5-0.3-0.5-1.8-0.2-2.5 0.5-1 1.7-1.7 2.4-2.2-0.6-2.4 1.8-4.2 3.7-4.6 0-1.6 1.5-2.5 2.9-2.9 0.2-0.2 0.2-0.5 0.3-0.7 0.6-0.5 1.8-0.7 2.5-0.8 0.6 0.2 1.3 0.3 1.7 0.7 0.1 0.1 0.1 0.3 0.2 0.4 0.2 0.2 0.6 0.3 0.6 0.7z"/>
						<path id="path84" fill-rule="evenodd" class="s7" d="m150 95.8c0.3 0 0.5 0.2 0.6 0-0.2-0.1-0.5-0.1-0.6 0z"/>
						<path id="path106" class="s8" d="m148.1 97.5c-1.4 0-2.4 0.9-2.7 1.9 0 0.3 0.4 0.2 0.4 0.6-0.4 0.4-1 0.2-1.4 0.3-1.3 0.5-2.6 1.7-2.7 3.4 0.1 0.2 0.5 0.2 0.5 0.5-1.2 1.1-3.2 1.5-2.9 4.2 0.4 0 0.8 0 0.9 0.4-0.5 0.3-1 0.7-1.4 1.2-0.5 0.6-1.1 1.4-0.5 2.1 0.4-0.2 0.9-0.2 1.1 0.2-0.6 0.6-1.2 1.1-1.7 1.8-0.2 1.2 0.4 1.7 0.9 2.3 2.5-1.1 5.8-1.6 9.3-1.8-0.5-1.3 0.4-3.3 1.4-3.5 1.9-0.4 3.1 1.4 2.6 3.5 2.6 0.1 4.9 0.6 7 1.2 0.2 0.2 0.6 0.3 0.7 0.6q0.5-0.1 0.9-0.3c0.2-0.9 1.1-1.8 0.5-2.9-1.6 0-0.3-0.9 0-1.6 0.6-1.5-0.8-2.2-1.4-3.1 0.2-0.4 0.6-0.6 0.8-0.9 0.8-2.1-1.8-2.6-2.5-3.5 0.3-0.9 0.3-1.8-0.1-2.4-0.7-0.9-3.3-1-3.5-2-0.1-0.3 0.2-0.7 0.1-0.9-0.1-0.8-1-1.2-1.8-1.1-0.3-0.4-0.9-0.5-1.5-0.5-1 0-2.2 0.3-3 0.3z"/>
						<path id="path128" class="s9" d="m146.1 115.3c-0.9 0-1.8 0.3-2.6 0.4-1.6 0.1-2.9 0.5-3.9 1.1 5.3 1.3 13.4 1 18.6-0.3-2.4-0.9-5.9-1.3-9.3-1.3q-1.5 0-2.8 0.1z"/>
						<path id="path140" fill-rule="evenodd" class="s6" d="m152 99.9c-1.1-0.3-2.8-0.2-3.9 0-0.4 0.1-0.8 0.1-0.9 0.4 0.2 0.3 0.6 0.1 0.9 0.1q1.1-0.1 2.3 0c0.9 0 1.7 0.4 2.4 0.1 0-0.4-0.5-0.5-0.8-0.6z"/>
						<path id="path144" fill-rule="evenodd" class="s6" d="m155.5 103.4c0.1 0.2 0.1 0.4 0.4 0.5 0.1-0.1 0.2-0.2 0.2-0.4-0.1-0.2-0.5-0.3-0.6-0.1z"/>
						<path id="path148" fill-rule="evenodd" class="s6" d="m156.6 103.8h0.2v-0.3h-0.3c0 0.1 0 0.2 0.1 0.3z"/>
						<path id="path152" fill-rule="evenodd" class="s6" d="m154.6 103.8c-0.7-0.1-1.6-0.3-2.4-0.2 0.4 0.2 1.9 0.8 2.4 0.2z"/>
						<path id="path156" fill-rule="evenodd" class="s6" d="m143.4 104.1c0.5 0.3 1.5-0.2 2.2-0.2 0-0.2 0.3-0.2 0.4-0.3-0.9 0.2-2.1 0-2.6 0.5z"/>
						<path id="path160" fill-rule="evenodd" class="s6" d="m158.2 107.1c-0.3-0.2-0.9-0.2-1.5-0.2 0.1 0.4 1.2 0.7 1.5 0.2z"/>
						<path id="path164" fill-rule="evenodd" class="s6" d="m158.6 107.4q0.1 0.4 0.6 0.5c0-0.2 0.1-0.2 0.1-0.3-0.1-0.2-0.5-0.4-0.7-0.2z"/>
						<path id="path168" fill-rule="evenodd" class="s6" d="m148.6 107.4c-0.8 0-1.8 0-2.4 0-1.7 0.1-3 0.3-4.2 0.6-0.3 0.1-0.8 0.1-0.9 0.5 0.6 0 1.3-0.3 2.1-0.4 1.7-0.2 3.8-0.2 5.7-0.2 0.3 0 0.7 0.1 0.9-0.1 0-0.5-0.8-0.3-1.2-0.4z"/>
						<path id="path172" fill-rule="evenodd" class="s6" d="m159.6 108.8c-1.2-0.5-3.2-1-4.6-0.8 1.6 0.4 3.2 0.7 4.7 1.2 0-0.2-0.1-0.3-0.1-0.4z"/>
						<path id="path176" fill-rule="evenodd" class="s6" d="m158.8 111.3c-0.2-0.4-0.7-0.4-1.2-0.4 0.1 0.4 0.9 0.6 1.2 0.4z"/>
						<path id="path180" fill-rule="evenodd" class="s6" d="m146 111c-1.5 0.1-3 0.3-4.2 0.6-0.4 0.1-1.1 0.1-1.2 0.6 1.7-0.5 3.9-0.7 5.9-0.8 0.9 0 1.5 0.2 2.1 0-0.1-0.7-1.9-0.5-2.6-0.4z"/>
						<path id="path184" fill-rule="evenodd" class="s6" d="m155.6 111.6c1.1 0.2 2.2 0.4 3.3 0.7 0.1 0.2 0.7 0.4 0.7 0-0.5-0.3-1.2-0.4-1.9-0.6-0.8-0.1-1.6-0.3-2.3-0.4q0 0 0 0.1 0.1 0 0.2 0.2z"/>
						<path id="path188" fill-rule="evenodd" class="s6" d="m159.7 111.7c0.1-0.3-0.2-0.3-0.6-0.3 0.1 0.3 0.4 0.5 0.6 0.3z"/>
						<path id="path192" fill-rule="evenodd" class="s6" d="m159.2 115.3c0.2 0.2 0.3 0.4 0.7 0.5 0-0.2 0.1-0.2 0.1-0.3-0.3-0.8-1.5-1.1-2.6-1.2 0.3 0.6 1.2 0.7 1.8 1z"/>
					</g>
					<g id="g7559">
						<path id="path522" class="s10" d="m99.5 91l-0.8 2-1.1-2.3-0.7 0.8-0.5 1.7-0.3-1.1-0.7-0.5-0.3 2-0.1 0.8-0.7-0.8-0.7-0.5-0.5 1.6-0.1 1.3-0.9-0.7-0.2 0.9 0.1 1.5v0.4l-1-0.3v2.9l-1 0.2 0.3 0.3 0.1 1.4 0.6 1.2 0.1 0.8-1.2-0.2 0.8 1.8 0.9 1.1 0.8 0.4 0.5 1.1 0.5 2 0.1 0.9-0.4 1.1 0.4 1 0.5 0.9-2.8 6.5 1.7 0.7 0.9 1h1.6l2.1 0.3 2.3-0.3 2.2 0.1 1.9-1.1 1 0.1 1.4-0.8-1.5-3.3-0.8-2.9-0.1-0.7 0.7-1 0.4-1.2-0.7-0.6-0.4-0.1 0.3-1.5 0.3-1.1 0.9-1.3 1-1.6 0.8-0.4 0.5-1.1-0.7-0.8 0.5-0.6 0.5-0.8-1.5-0.8 1.2-1.9 0.1-0.5-1.5 0.1v-0.8l0.7-1.6-1-0.5-1.3 0.5-0.1-0.8 0.9-2.7h-1l-1.9 1.2 0.4-1.8-0.1-1.1-1.4 1.2-0.6 0.9-0.4-1.7-0.2-1.7z"/>
						<path id="path534" fill-rule="evenodd" class="s6" d="m101 92.7c0.6-0.4 1-1 1.6-1.3v-0.4c1.1 0.2 0.8 1.9 0.5 2.9 0.7-0.3 1.1-1.1 2-1 0.2-0.2 0.4-0.4 0.8-0.2 0.1 1.4-0.6 2.3-0.9 3.4 0.6-0.3 2.1-0.3 1.6 0.6-0.7-0.2-1.5 0.2-2.1 0.5-0.3-0.3-0.1-0.8-0.4-1.1 0.3-0.8 0.8-1.5 1-2.4-1.4-0.3-1.6 1.3-2.9 1.4-0.7-0.6 0.8-2.1 0.5-3.2-0.9 0.7-1.3 1.7-2 2.6-0.4-0.2-0.1-1.1-0.5-1.3q0.1-1.4-0.1-2.5c-0.4 0.3-0.4 0.8-0.5 1.2-0.2 0.4-0.5 0.8-0.6 1.2-0.1 0.2 0.1 0.6-0.2 0.7-0.6-0.3-0.6-1.4-0.9-2-0.1-0.1-0.3-0.6-0.4-0.6-0.2 0-0.7 1.5-0.7 1.8 0 0.3 0.3 0.7-0.1 0.9-0.8-0.1-0.5-1.4-1-1.8-0.1 0.7-0.4 1.8-0.2 2.5 0 0.3 0.3 0.4 0.1 0.6-0.5 0.2-0.5-0.6-1-0.6-0.2-0.4-0.4-0.8-0.9-1-0.2 0.6-0.6 2 0.1 2.4-0.1 0.4-0.4 0.6-0.7 0.6-0.3-0.1-0.4-0.8-0.8-0.8-0.1 0.5 0 1.2 0.1 1.7 0.1 0 0.2-0.1 0.4 0.1 0.4 0.6-0.3 0.9-0.6 1.2-0.4 0-0.3-0.4-0.8-0.3-0.2 0.7 0 1.7 0.2 2.4 0.3 0.2 0.7 0.7 0.5 1.1-0.9 0.3-0.9-0.6-1.4-0.8-0.4 1.5 0.8 2.4 1.1 3.6-0.4 0.6-1.1 0.4-1.6 0 0.3 0.8 1 1.8 1.8 2.3 0.1 0-0.1-0.2 0.1-0.1 0.6 1 1.1 2.1 1.3 3.5 0 0.1 0.3 0 0.3 0.2 0.1 0.4 0.3 0.7 0.6 1-0.2 0.6-1 0.8-0.9 1.5 0 0.4 0.4 0.4 0.4 0.9-1.5 0.4-1.3-2.2-0.4-2.6-0.1-1.4-0.5-2.5-1-3.6-1-0.3-1.7-1.1-2.2-2-0.4-0.6-0.7-1.3-0.6-2 0.4-0.2 0.7 0 1 0.1-0.2-1-0.7-1.6-0.6-2.9 0-0.2-0.3-0.2-0.3-0.5 0.1-0.3 0.7-0.2 1-0.2 0-1 0.2-2.3-0.1-3.1 0.4-0.2 0.6 0.2 1 0.2 0.2-0.8-0.1-1.7 0.1-2.5 0.3-0.3 0.7 0 1.1 0.1 0.2-0.8 0.3-1.7 0.7-2.5 0.7 0 0.8 0.6 1.3 0.9 0.2-0.8 0.2-1.9 0.6-2.4q0.7 0.2 1 0.8c0.3-0.6 0.9-1 0.8-1.8 0.5 0 0.6 0.5 0.8 0.8q0.4 0.4 0.7 0.9c0.5-0.6 0.8-1.6 1.7-2 0.5 0.6 0.4 1.9 0.6 2.9z"/>
						<path id="path538" fill-rule="evenodd" class="s6" d="m104.2 111.2c1.2 0.1 1.8 2.1 0.7 2.7 0 0.1 0.1 0.2 0.1 0.4-0.2 0.2-0.6 0.1-0.8 0.2-0.2 0 0.1 0.1 0.1 0.2 0.3 1.8 0.8 3.6 1.6 5 0.4 0.6 1.1 1.5 0.5 2-0.9 0-1.7 1.1-2.7 0.5 0 0.1-0.1 0.4-0.2 0.5-0.5 0-1 0.5-1.5 0.6-0.5 0.1-1-0.1-1.5-0.1-1.6-0.1-3.7 0.9-4.9 0-1.2 0.4-2.7 0-3-0.9-1-0.1-2-0.6-1.9-1.5 0-0.2 0.3-0.4 0.5-0.6 0.2-0.4 0.3-0.9 0.6-1.4 0.7-1.1 1.5-2.6 2-3.9-0.1-0.2-0.5-0.1-0.5-0.4 0.9-0.2 2.1-0.3 2.9 0-0.2 0.8-1.4 0-2 0.3-1.1 2.1-1.8 4.1-2.7 6.2 0.1 0.3 0.5 0.4 1.1 0.4 0.2-0.2 0.2-0.6 0.4-0.7 0.3 0.1 0.4 0.3 0.4 0.7 0.5-0.8 0.8-1.9 1.2-2.8 0.2 0.8-0.4 1.6-0.5 2.4-0.1 0.5-0.1 1-0.3 1.4 0.1 0.3 0.8 0.2 1 0.1 0.3-1.3 0.6-2.8 1.2-3.8 0.4 1.2-0.5 2.4-0.3 3.7 0.4 0.5 1.7 0.7 2.2 0.1 0-0.5 0-1.1 0.5-1.2 0.3 0.3 0.1 0.8 0.1 1.3 0.4 0.1 0.9 0 1.3-0.1 0.1-1.2-0.1-3.3 0.3-4.6 0.2 0.2 0.4 0.7 0.4 1 0.2 1.1 0 2.5 0.2 3.7 0.7 0.3 1.4-0.3 2-0.3 0.2-0.1 0.3-0.2 0.4-0.4h0.5c-0.1-1.1-0.5-2.7-0.5-3.9 0.4 0.1 0.6 0.6 0.7 0.9 0.2 0.8 0.3 2.1 0.6 2.8 0.4-0.2 1-0.3 1.4-0.6-0.9-2-1.7-4-2.1-6.6-1.3-0.4-3 0.6-3.8-0.2 0.3 0.1 0.5-0.3 0.9-0.4 0.9-0.3 2.1 0 3.2-0.2 0.2-0.5 0.9-1.3 0.2-1.8-0.2 0-0.1 0.2-0.3 0.2-1.1-0.2-2.4-0.2-3.6-0.2 0.1-0.6 1.2-0.1 1.6-0.4q0.3 0.1 0.8 0.1c-0.1-0.7 0.4-1.7 0.8-2.3 0.5 0.6-0.5 1.4-0.4 2.2 0.1 0.1 0.2 0 0.3 0 0.2-1.9 1.1-3 1.8-4.4 0.4-0.4 0.9-0.8 1-1.5 0.6-0.1 0.8-0.5 1.1-0.9-0.4-0.4-0.6-0.8-0.6-1.6 0.4-0.1 0.7-0.3 0.8-0.6-0.5-0.5-1.7-0.6-1.4-1.7 0.5-0.5 1.1-0.8 1.2-1.5-0.7-0.2-1.3 0.7-1.8 0.3 0-0.3 0.3-0.3 0.3-0.5-0.2-0.2-0.2-0.3-0.2-0.7q0.9-0.7 1.3-2c0.3-0.2 0.3-0.8 0.8-0.6 0.1 1.1-0.6 2.1-1.1 2.9 0.5 0.1 1.2-0.3 1.7-0.1 0.2 1.3-0.9 2-1.5 2.8 0.3 0.2 0.6 0.2 1 0.3 0.2-0.1 0.3-0.4 0.7-0.2 0.3 0.9-0.6 1.7-1.2 2.3 0.2 0.2 0.6 0 0.9 0.3 0 1-0.7 1.7-1.5 2-0.2 1.2-1.5 1.4-1.8 2.6 0 0.1 0.1 0 0.1 0-0.2 0.8-0.7 1.6-0.8 2.5z"/>
						<path id="path542" fill-rule="evenodd" class="s6" d="m97 96.9c-0.1-0.6-0.2-1.2-0.1-1.9-0.1-0.1-0.1-0.2-0.2-0.3-0.2 0.7-0.4 1.9 0.3 2.2z"/>
						<path id="path546" fill-rule="evenodd" class="s6" d="m99.1 96.6c0.2-0.5 0.5-1.3 0-1.5-0.1 0.4-0.4 1.3 0 1.5z"/>
						<path id="path550" fill-rule="evenodd" class="s6" d="m101 97c0-0.7-0.2-1.2-0.8-1.1 0.5 0.4 0.4 1.3 0.6 1.8 0.3 0.1 0.2-0.4 0.2-0.7z"/>
						<path id="path554" fill-rule="evenodd" class="s6" d="m94.9 96.7c-0.4 0.7-0.4 2.3 0.4 2.6 0.1-0.9-0.5-1.7 0.1-2.3 0.2 0.2 0.3 0.5 0.5 0.9 0.1 0.4 0.1 0.8 0.4 1 0.2-1-0.2-2.5-1.4-2.2z"/>
						<path id="path558" fill-rule="evenodd" class="s6" d="m102.8 97.9c0.8 0.5 0 1.3-0.1 2q0.1 0 0.1 0.1c0.6-0.3 1.1-1.5 0.6-2.2 0-0.1 0.1-0.1 0.1-0.2-0.2 0-0.1-0.2-0.3-0.2 0 0.3-0.3 0.3-0.4 0.5z"/>
						<path id="path562" fill-rule="evenodd" class="s6" d="m101.5 100.4c0.4-0.2 1-1 0.7-1.6-0.2 0.6-1 1-0.7 1.6z"/>
						<path id="path566" fill-rule="evenodd" class="s6" d="m104.6 102c0.5 0 0.7-1 0.3-1.1-0.1 0.3-0.5 0.8-0.3 1.1z"/>
						<path id="path570" fill-rule="evenodd" class="s6" d="m96.2 102.4c0.2-0.2 0.1-0.6 0-0.8-0.6-0.4-0.7 0.9 0 0.8z"/>
						<path id="path574" fill-rule="evenodd" class="s6" d="m95.5 103.9c-0.2-0.2-0.4-0.2-0.6-0.4-0.3-0.4-0.2-1.2-0.3-1.8-0.1 0-0.2-0.1-0.3-0.1-0.5 0.8 0.2 3.2 1.2 2.3z"/>
						<path id="path578" fill-rule="evenodd" class="s6" d="m101.1 103c0.2-0.2 0.3-0.5 0.3-0.8-0.1-0.1-0.1-0.2-0.3-0.1-0.1 0.3-0.4 0.7 0 0.9z"/>
						<path id="path582" fill-rule="evenodd" class="s6" d="m105.2 104.1c0.6 0.6 1.4-1.7 0.6-1.8-0.1 0.7-0.7 1.1-0.6 1.8z"/>
						<path id="path586" fill-rule="evenodd" class="s6" d="m98.8 102.6c-0.1 0.6-0.4 1.8 0.1 2.2 0.4-0.4 0.5-2.1-0.1-2.2z"/>
						<path id="path590" fill-rule="evenodd" class="s6" d="m101.3 104.7c0.2-0.2 0.3-1 0-1.1-0.2 0.3-0.5 0.9 0 1.1z"/>
						<path id="path594" fill-rule="evenodd" class="s6" d="m104.3 104.6c-0.3 0.3-1 2-0.5 2.4 0.4-0.1 0.4-0.7 0.5-1 0.1-0.4 0.4-0.8 0.3-1.3q-0.1 0-0.3-0.1z"/>
						<path id="path598" fill-rule="evenodd" class="s6" d="m95.9 105.9c-0.2 1.8 0.6 3.7 0.4 5.6-0.4 0.1-1.1-0.1-1 0.4 0.2 0.1 0.8 0 1.2 0.1 0.1-0.1 0.1-0.3 0.3-0.3-0.1-1.6-0.2-3.3-0.5-4.6-0.1-0.4 0-0.9-0.3-1.2z"/>
						<path id="path602" fill-rule="evenodd" class="s6" d="m101.6 109.5c0 0.3-0.3 0.7 0 0.9 0.4-1 1-2.6 1-3.8q0-0.1 0-0.1c-0.4 0.9-0.7 2-1 3z"/>
						<path id="path606" fill-rule="evenodd" class="s6" d="m99.2 108c0.2-0.3 0-0.7-0.4-0.7 0 0.3 0 0.7 0.4 0.7z"/>
						<path id="path610" fill-rule="evenodd" class="s6" d="m99.3 111.6c0 0.1 0.1 0.4 0.3 0.4 0.3-0.9 0.3-2.6 0.3-3.5h-0.2c0 0.8-0.6 2.2-0.4 3.1z"/>
						<path id="path614" fill-rule="evenodd" class="s6" d="m98.7 109.4c0 0.2 0.1 0.3 0.3 0.3q0.2-0.1 0.2-0.3c-0.2 0-0.5-0.3-0.5 0z"/>
						<path id="path618" fill-rule="evenodd" class="s6" d="m99 111.3c0-0.4-0.2-0.5-0.4-0.5-0.2 0.3 0.2 0.7 0.4 0.5z"/>
						<path id="path622" fill-rule="evenodd" class="s6" d="m97.8 111.9c0.2 0.2 0.4 0.1 0.7 0 0 0.2 0.5 0.2 0.4-0.1-0.3-0.1-0.7-0.1-1-0.2-0.1 0.1-0.2 0.2-0.1 0.3z"/>
					</g>
					<g id="g7630">
						<path id="path300" fill-rule="evenodd" class="s6" d="m154.9 145.7c0.1 0.4 0 0.9 0.4 1.1 0.5-0.1 0.8-0.6 1.2-0.9 0.5 0.2 0.2 0.9 0.4 1.2 0.6 0 0.9-0.8 1.5-0.4 0.5 0.3-0.3 1-0.1 1.6 0.6-0.1 1-0.9 1.7-0.7 0.3 0.2 0 0.6 0 1.1 0.4 0.3 0.9 0.1 1.3 0.2 0.3 0.9-0.6 1.3-1 2-0.7 0.9-1.3 2.1-1.9 3.2 0.2 0.2 1 0.3 0.9 0.7-0.2 0.3-0.6 0.3-0.8 0.7 0.1 0.5 0.9 0.6 0.7 1.1-0.2 0.4-0.9 0.3-1.1 0.7 0 0.5 0.6 0.9 0.6 1.3-0.1 0.3-0.6 0.1-0.8 0.3 0 0.5 0.3 0.8 0.1 1.3-0.4 0-0.8-0.1-1 0.1 0 0.4 0 0.9-0.1 1.2-0.7-0.3-1.4-0.1-1.5 0.8-0.7 0-1.4 0.3-1.4 1q-0.1 0.2-0.4 0.1c-0.2 1.5-0.1 2.9 0.6 3.9 0.7-1.1 1.3-2.5 2.3-3.3 0.3 0.3 0.5 0.7 1.1 0.8 0.1-0.6-0.9-0.8-0.9-1.5 0.6-0.1 0.7 0.3 1 0.4 0.8 0.2 1.6-0.6 1.9-1.4 0.2-0.6-0.1-1.2 0-1.8 1 0.1 0.4 1.3 1.1 1.5 0.4 0.1 0.5-0.3 0.8-0.5 0.2-0.2 0.6-0.4 0.7-0.6 0.5-0.6 0.7-1.4 1-2 0.9 0 0.2 1.3 0.9 1.5q1.1 0 2.1-0.6c0.2-0.1 0.4-0.4 0.6-0.5 0.1-0.1 1.1-0.5 1.2-0.5q0.2 0 0.4 0.3c-0.5 1-2.2 1.6-1.7 3.2 0.2 0.1 0.6 0 0.7 0.2-0.3 0.9-1.5 0.8-1.5 1.8 0 1 1.6 1 1.6 2.1-1.1 0.1-1.8 0.7-2.1 1.7-0.1 0.5 0 1-0.2 1.3-0.3 0.1-0.3-0.4-0.6-0.4-0.2 0-0.5-0.1-0.7 0-1 0.4-0.8 1.9-1.2 2.6-0.4 0-0.4-0.3-0.7-0.4-0.9-0.2-1.1 1.3-1.6 1.8-0.7-0.1-0.5-1-1.3-1.1-0.8-0.1-0.9 1.3-1.7 1.6-0.5-0.3-0.7-0.9-1.3-1.2-0.5 0.3-0.9 0.2-1.2-0.2-0.4 0.5-0.8 1.3-1.1 2.2-0.1 0.4-0.2 0.9-0.4 1.4-0.2 0.6-0.5 1-0.5 1.7-0.7 0.3-1.4 1.5-2.2 1.9-0.6 0.4-1.4 0.3-1.5-0.5 0.3-1 0.2-2.4 0.7-3.5-0.4-0.5-1-0.9-1.7-1.3-0.3 0-0.4 0.3-0.7 0.3-0.8-0.3-1.6-0.3-2.3 0-0.5 0.3-0.9 1.1-1.3 0.2 0.6-1.3-0.4-1.8-1.6-1.7-0.8 0-1.3 0.8-1.9 0.6 0.3-0.7 0.5-1.7 0.1-2.4-0.5-0.6-2.5-0.2-1.6-1.5 0.8-0.4 1.8-0.6 2.2-1.4 0.2-0.5-0.1-1.3-0.7-1.5-0.5-0.2-1.5-0.4-2.1-0.6-0.6-0.1-1.4 0-1.3-0.6 0.1-0.3 0.4-0.3 0.8-0.5 0.8-0.4 1.6-1 1.8-2.2-0.3-0.7-1.7-0.2-1.9-0.8 0.4-0.6 1.3-0.9 1.5-1.7 0.3-0.9-0.5-1.1-0.6-1.9 0.5-0.5 2-0.6 1.9-1.4 0-0.4-0.8-0.6-0.7-1.1 0.1-0.5 1.1-0.7 1.4-1.1 0.5-0.8 0.8-1.7 0.8-2.7 0.2 0 0.2 0.1 0.4 0.1 0.4 1-0.6 2.9 0.2 3.7 1.2 0.3 2.1-1.9 2.9-0.7-0.8 0.9-1.7 3-0.7 4.1 0.8 0.1 1.4-0.9 2-0.2-0.4 0.9-1 1.6-1.2 2.9 0.2 0.4 0.5 0.7 0.7 1 1.1 0.3 1.7-1 2.8-0.7-0.2 0.9-1 1.4-0.9 2.5 0 0.3 0.4 1 0.6 1.2 0.2 0.3 0.7 0.6 0.7 0.9 0 0.5-0.8 0.9-1 1.3-0.1 0.3-0.2 0.7-0.1 1.1 0 0.4 0.4 0.7 0.4 1-0.1 0.5-0.7 0.7-0.5 1.2 0.8 0.5 1.9 0.7 2.4 1.5 0.5-0.7 0.7-1.8 1.3-2.5-0.7-0.7-0.6-1.9-0.9-3-0.1-0.5-0.1-0.5-0.1-1.2 0-0.2-0.2-0.5-0.2-0.8 0-0.6 0.1-1.1 0.2-1.3-0.1-0.7 0.2-1.6-0.4-2-0.4 0.1-0.8 0.2-1.1-0.2 0.1-0.5 0.5-1 0-1.2-0.3-0.2-0.6 0.3-1.1 0.1q0-0.1-0.1-0.2c-0.1-0.2 0.2-0.5 0.2-0.8-0.1-0.4-1-0.1-1.2-0.5-0.2-0.5 0.4-0.7 0.4-1 0.1-0.6-0.8-0.5-1-1 0.2-0.7 0.9-0.6 1.1-1.2 0-0.4-0.7-0.3-0.8-0.7 0.3-0.4 1.2-0.2 1.3-0.8-0.4-0.4-0.9-1.2 0.3-1.1q0.5-0.3 0.8-0.7c0.1-0.3-0.2-0.4-0.2-0.7-0.1-0.3 0.2-0.1 0.3-0.3-0.3-1.5-1.1-2.6-1.5-4 0.8 0.2 0.8-0.7 1-1.2 0.6-0.1 0.4 0.7 0.9 0.7 0.6 0 0.6-0.9 0.8-1.4 0.5-0.1 0.4 0.4 0.6 0.5 0.6 0 0.6-1 1.2-0.8 0.3 0.1 0 0.9 0.5 1 0.7 0.1 0.6-0.9 1.4-0.9 0.1-0.1 0.3-0.1 0.5 0zm2.4 8.2c-0.3-0.3-0.7-0.3-0.9-0.7-0.5 0.3-1-0.1-1.4-0.3-0.2 0.2-0.6 0.2-0.9 0.2q-0.3-0.2-0.8-0.5c-0.2 0.2-0.5 0.3-0.9 0.3-0.2-0.1-0.5-0.3-0.9-0.4-0.2 0.4-0.6 0.6-1.3 0.4-0.1 0.7-0.7 1.1-1.2 1.4 0.4 0.6-0.3 1.3-0.7 1.4 0.4 0.6-0.3 1.3-0.7 1.5 0.8 0.3 0.9 1 0.6 1.8 0.2 0.1 0.4 0.2 0.7 0.2 0.2 0.3 0.2 0.6 0.2 1 0.2 0 0.4 0 0.6 0 0.3 0.3 0.9 0.6 0.6 1.4 2.3 0.5 0.5 3.2 1.3 4.8 0 0.2-0.1 0.2-0.1 0.4 0.5 1 0.4 2.4 1 3.3-0.1 0.3 0.1 0.4 0.1 0.7-0.4 0.9-1 1.6-1.3 2.5-0.3 0.1-0.4 0.3-0.7 0.3-0.7-0.7-1.8-1.2-2.8-1.7-0.3-0.6-0.2-1.4 0.2-1.9-0.9-1.2 0-2.7 0.7-3.4-1-0.6-1.4-1.8-1.1-3.2-1.9 0.6-3.3-1.2-2.3-3.2-1.8-0.3-1.8-1.9-1.6-3.7-0.7 0-0.9 0.2-1.4-0.2-0.2-0.3-0.3-1-0.6-1.1-0.2 0-0.8 0.9-0.9 0.9 1.2 1-0.1 2.4-1.2 2.6 0.7 1.1 0.4 2.4-0.5 3.1 0.6 0.1 1.1 0.3 1.4 0.6 0.1 0.7-0.5 1.8-0.9 2.3-0.3 0.3-0.9 0.4-0.9 0.6 1.7 0.3 3.5 1.1 3.4 2.5-0.2 1.2-1.4 1.5-2 2.3 1.1 0.3 1.3 1.3 1.5 2.4 1.2-0.5 3.3-0.1 3.3 1.3 0.7-0.2 1.3-0.5 2.3-0.4 0-0.1 0.1-0.2 0.3-0.2 1.6 0.1 2.2 1.1 3.1 1.7-0.1 0.8-0.3 1.6-0.5 2.5-0.1 0.2-0.3 0.3-0.2 0.5 0.7-0.4 1.3-1.1 2.3-1.1 0.5-1.4 0.9-2.9 1.5-4 0.3-0.5 0.6-1.4 1.1-1.6 0.3 0.1 0.4 0.5 0.8 0.5 0.2 0.1 0.4 0 0.7 0 0.5 0.2 0.6 0.9 1.1 1.1 0.4-0.5 0.6-1.5 1.3-1.5 0.7-0.1 1.1 0.3 1.6 0.7 0.4-0.8 1.1-1.9 2.1-1 0-1.5 0.7-3.4 2.3-2.5 0.2-1.4 0.9-2.1 1.8-2.5-1.3-0.5-1.7-2.7-0.3-3.2-0.3-0.4-0.3-1-0.2-1.7-0.8 0.3-2.5 0.2-2.9-0.7-0.2 0.6-0.6 0.7-1 1.1-0.5 0.5-0.8 1.2-1.8 0.9-0.5 1.1-1.2 1.7-2.3 2 0.4 0.6 0.5 1.9-0.2 2.6 0.8 1.3-0.8 3.5-2.1 2.7-0.1-1.6 1.1-2.8 1.4-4.5-0.1-0.2-0.5-0.2-0.7-0.3-0.7 1-1.5 2-2 3.4-0.5-0.1-0.4-0.5-0.8-0.6-0.1-0.5-0.5-1-0.6-1.6 0-0.2 0.1-0.3 0.1-0.5 0-0.3-0.3-0.6-0.2-0.8 0-0.4 0.1-1.5 0.2-1.9 0.1-0.1 0.3-0.2 0.4-0.3 0.4-0.6 0.6-1.2 1.4-1 0.2-0.7 0.7-0.9 1.5-0.9q0-0.4 0.1-0.9c0.2-0.3 0.7-0.1 0.8-0.5 0.1-0.2 0-0.5 0-0.7 0.1-0.3 0.3-0.3 0.5-0.6-0.5-0.5-0.2-1.5 0.3-1.9-0.2-0.4-0.5-0.9-0.1-1.4-0.5 0-0.5-0.6-0.7-0.8zm-5.8 23.6c0.3 0.1 0.4 0 0.4-0.2-0.2 0-0.3 0.1-0.4 0.2zm2.8-31.1c-0.4 0.3-0.4 0.9-0.9 0.9-0.6 0.1-0.7-0.4-1.2-0.7-0.1 0.5-0.5 0.7-1.2 0.5 0 0.9-0.8 1.2-1.6 0.8-0.9 0.4-0.6 1.1-0.2 1.9 0.1 0.3 0.3 0.4 0.3 0.6 0.3 0.5 0.3 1.1 0.4 1.6 0.2 0.3 0.6 0.7 1.1 0.4 0.1-0.2 0.1-0.7 0.3-0.8 0.3 0 0.2 0.4 0.4 0.5 0.7 0.5 1.2 0.2 1.6-0.3 0.4 0.3 0.4 0.7 0.8 0.8 0.6 0.1 0.9-0.4 1.3-0.5 0.2 0.2 0.1 0.5 0.1 0.6 0.5 0.2 1-0.1 1.3-0.1 0.2 0.2 0 0.4-0.1 0.5 0.6 0.7 1.1-0.1 1.7 0 0.7-1.1 1.3-2.4 2.1-3.4-0.5-0.3-0.9-0.7-1.2-1.1-0.5 0.7-1.7 0.2-1.8-0.7-0.7 0.2-1.1-0.4-1.4-0.8-0.8 0.7-1.3-0.2-1.8-0.7zm2.2 22.5c0.5 0.1 1.4-1.2 0.8-1.8-0.5 0.3-0.8 1.2-0.8 1.8z"/>
						<path id="path304" fill-rule="evenodd" class="s11" d="m156.1 147.1c0.3 0.4 0.7 1 1.4 0.8 0.1 0.9 1.3 1.4 1.8 0.7 0.3 0.4 0.7 0.8 1.2 1.1-0.8 1-1.4 2.3-2.1 3.4-0.6-0.1-1.1 0.7-1.7 0 0.1-0.1 0.3-0.3 0.1-0.5-0.3 0-0.8 0.3-1.3 0.1 0-0.1 0.1-0.4-0.1-0.6-0.4 0.1-0.7 0.6-1.3 0.5-0.4-0.1-0.4-0.5-0.8-0.8-0.4 0.5-0.9 0.8-1.6 0.3-0.2-0.1-0.1-0.5-0.4-0.5-0.2 0.1-0.2 0.6-0.3 0.8-0.5 0.3-0.9-0.1-1.1-0.4-0.1-0.5-0.1-1.1-0.4-1.6 0-0.2-0.2-0.3-0.3-0.6-0.4-0.8-0.7-1.5 0.2-1.9 0.8 0.4 1.6 0.1 1.6-0.8 0.7 0.2 1.1 0 1.2-0.5 0.5 0.3 0.6 0.8 1.2 0.7 0.5 0 0.5-0.6 0.9-0.9 0.5 0.5 1 1.4 1.8 0.7zm1.4 2.1c-0.2 0.4-0.5 0.8-0.8 1.3-0.2 0.4-0.6 1.1 0.1 1.2 0.4-0.7 0.9-1.3 1.1-2.4-0.1 0-0.2-0.1-0.4-0.1zm1.8-0.1c-0.4 0.5-2 2.5-2.1 3.1 0 0.1 0.1 0.4 0.2 0.5 0-0.1 0.2-0.1 0.3 0 0.6-1.3 1.5-2.3 1.8-3.5-0.1 0-0.1-0.1-0.2-0.1zm-4.9 1.3c0-0.4 0.2-0.9 0-1.1-0.2 0.3-0.3 0.9 0 1.1z"/>
						<path id="path308" fill-rule="evenodd" class="s6" d="m159.5 149.2c-0.3 1.2-1.2 2.2-1.8 3.5-0.1-0.1-0.3-0.1-0.3 0-0.1-0.1-0.2-0.4-0.2-0.5 0.1-0.6 1.7-2.6 2.1-3.1 0.1 0 0.1 0.1 0.2 0.1z"/>
						<path id="path312" fill-rule="evenodd" class="s6" d="m157.9 149.3c-0.2 1.1-0.7 1.7-1.1 2.4-0.7-0.1-0.3-0.8-0.1-1.2 0.3-0.5 0.6-0.9 0.8-1.3 0.2 0 0.3 0.1 0.4 0.1z"/>
						<path id="path316" fill-rule="evenodd" class="s6" d="m154.4 149.3c0.2 0.2 0 0.7 0 1.1-0.3-0.2-0.2-0.8 0-1.1z"/>
						<path id="path320" fill-rule="evenodd" class="s6" d="m152.2 153.5c-0.1 0.1-0.1 0.2-0.1 0.3-0.2-0.1-0.3-0.2-0.3-0.4 0.1-0.1 0.3 0 0.4 0.1z"/>
						<path id="path324" fill-rule="evenodd" class="s6" d="m150.9 153.4c0.2 0.1 0.2 0.1 0.3 0.2 0 0.2-0.1 0.4-0.2 0.5-0.1-0.1-0.1-0.1-0.2-0.2 0-0.2 0-0.4 0.1-0.5z"/>
						<path id="path328" fill-rule="evenodd" class="s6" d="m157.2 155.1c-0.5-0.1-1-0.2-1-0.6 0.4-0.1 1.1 0 1 0.6z"/>
						<path id="path332" fill-rule="evenodd" class="s6" d="m155.2 154.4q0.1 0 0.2 0c-0.1 0.5-0.2 0.7-0.4 0.9-0.4-0.3 0.1-0.6 0.2-0.9z"/>
						<path id="path336" fill-rule="evenodd" class="s6" d="m157.1 156.6c-0.7 0.6-1-1.4-0.1-0.7 0.1 0.2 0.1 0.3 0.1 0.7z"/>
						<path id="path340" fill-rule="evenodd" class="s6" d="m155.8 156.2c-0.1 0.4-0.3 0.9-0.7 0.9 0-0.4 0.3-1.1 0.7-0.9z"/>
						<path id="path344" fill-rule="evenodd" class="s6" d="m156.8 157.8c0.1 1.1-0.8 1.9-1.6 1.6 0.4-0.4 1-1 1.4-1.7 0.1 0 0.1 0.1 0.2 0.1z"/>
						<path id="path348" fill-rule="evenodd" class="s6" d="m154.8 158.2q0.1 0 0.1 0.1c0 0.6-0.6 1.2-1.1 1.1 0.2-0.5 0.7-0.8 1-1.2z"/>
						<path id="path352" fill-rule="evenodd" class="s6" d="m154.8 160.5c-0.1 0.2-0.2 0.3-0.2 0.4-0.2 0-0.3 0.1-0.4 0-0.2-0.5 0.3-0.8 0.6-0.4z"/>
						<path id="path356" fill-rule="evenodd" class="s6" d="m143.2 159c0.3 0.3 0.4 0.9 0.4 1.3-0.5-0.2-0.6-0.8-0.4-1.3z"/>
						<path id="path360" fill-rule="evenodd" class="s6" d="m162.4 164.8c-0.1 0.9-0.9 1.8-1.5 2.5 0.3-0.9 1-1.7 1.5-2.5z"/>
						<path id="path364" fill-rule="evenodd" class="s6" d="m142.6 162.7c0.4 1.2 0.6 2.4 0.9 3.6-0.7-0.9-0.8-2.2-1-3.4q0.1-0.1 0.1-0.2z"/>
						<path id="path368" fill-rule="evenodd" class="s2" d="m157.3 167.1c0.6 0.6-0.3 1.9-0.8 1.8 0-0.6 0.3-1.5 0.8-1.8z"/>
						<path id="path372" fill-rule="evenodd" class="s6" d="m153.8 169.1c-0.4 0-0.6-0.3-0.5-0.6 0.4 0.1 0.7 0.2 0.5 0.6z"/>
						<path id="path376" fill-rule="evenodd" class="s6" d="m152.8 168.9c0.3 0.1 0.4 0.3 0.3 0.7 0 0-0.1 0-0.1 0.1-0.3-0.1-0.4-0.5-0.2-0.8z"/>
						<path id="path380" fill-rule="evenodd" class="s6" d="m157.9 170.1q0.2 0.1 0.3 0.3c-0.2 0-0.3 0.1-0.4 0q0-0.2 0.1-0.3z"/>
						<path id="path384" fill-rule="evenodd" class="s6" d="m145.4 169.8c0.3 0.1 0.4 0.4 0.6 0.7 0.4 0 0.8 0.2 0.7 0.5-0.1 0.8-1.5-0.5-1.3-1.2z"/>
						<path id="path388" fill-rule="evenodd" class="s12" d="m151.9 177.3c0 0.2-0.1 0.3-0.4 0.2 0.1-0.1 0.2-0.2 0.4-0.2z"/>
						<path id="path392" fill-rule="evenodd" class="s12" d="m158 154.7c-0.4 0.5-0.1 1 0.1 1.4-0.5 0.4-0.8 1.4-0.3 1.9-0.2 0.3-0.4 0.3-0.5 0.6 0 0.2 0.1 0.5 0 0.7-0.1 0.4-0.6 0.2-0.8 0.5q-0.1 0.5-0.1 0.9c-0.8 0-1.3 0.2-1.5 0.9-0.8-0.2-1 0.4-1.4 1-0.1 0.1-0.3 0.2-0.4 0.3-0.1 0.4-0.2 1.5-0.2 1.9-0.1 0.2 0.2 0.5 0.2 0.8 0 0.2-0.1 0.3-0.1 0.5 0.1 0.6 0.5 1.1 0.6 1.6 0.4 0.1 0.3 0.5 0.8 0.6 0.5-1.4 1.3-2.4 2-3.4 0.2 0.1 0.6 0.1 0.7 0.3-0.3 1.7-1.5 2.9-1.4 4.5 1.3 0.8 2.9-1.4 2.1-2.7 0.7-0.7 0.6-2 0.2-2.6 1.1-0.3 1.8-0.9 2.3-2 1 0.3 1.3-0.4 1.8-0.9 0.4-0.4 0.8-0.5 1-1.1 0.4 0.9 2.1 1 2.9 0.7-0.1 0.7-0.1 1.3 0.2 1.7-1.4 0.5-1 2.7 0.3 3.2-0.9 0.4-1.6 1.1-1.8 2.5-1.6-0.9-2.3 1-2.3 2.5-1-0.9-1.7 0.2-2.1 1-0.5-0.4-0.9-0.8-1.6-0.7-0.7 0-0.9 1-1.3 1.5-0.5-0.2-0.6-0.9-1.1-1.1-0.3 0-0.5 0.1-0.7 0-0.4 0-0.5-0.4-0.8-0.5-0.5 0.2-0.8 1.1-1.1 1.6-0.6 1.1-1 2.6-1.5 3.9-1 0.1-1.6 0.8-2.3 1.2-0.1-0.2 0.1-0.3 0.2-0.5 0.2-0.9 0.4-1.7 0.5-2.5-0.9-0.6-1.5-1.6-3.1-1.7-0.2 0-0.3 0.1-0.3 0.2-1-0.1-1.6 0.2-2.3 0.4 0-1.4-2.1-1.8-3.3-1.3-0.2-1.1-0.4-2.1-1.5-2.4 0.6-0.8 1.8-1.1 2-2.3 0.1-1.4-1.7-2.2-3.4-2.5 0-0.2 0.6-0.3 0.9-0.6 0.4-0.5 1-1.6 0.9-2.3-0.3-0.3-0.8-0.5-1.4-0.6 0.9-0.7 1.2-2 0.5-3.1 1.1-0.2 2.4-1.6 1.2-2.6 0.1 0 0.7-0.9 0.9-0.9 0.3 0.1 0.4 0.8 0.6 1.1 0.5 0.4 0.7 0.2 1.4 0.2-0.3 1.8-0.2 3.4 1.6 3.7-1 2 0.4 3.8 2.4 3.2-0.4 1.4 0 2.6 1 3.2-0.7 0.7-1.6 2.2-0.7 3.4-0.4 0.5-0.5 1.3-0.2 1.9 1 0.5 2.1 1 2.8 1.7 0.3 0 0.4-0.2 0.7-0.3 0.3-0.9 0.9-1.6 1.3-2.5 0-0.4-0.2-0.4-0.1-0.7-0.6-0.9-0.5-2.3-1-3.3 0-0.2 0.1-0.2 0.1-0.4-0.8-1.6 1-4.3-1.3-4.8 0.3-0.8-0.3-1.1-0.6-1.4-0.2 0-0.4 0-0.6 0 0-0.4 0-0.7-0.2-1-0.3 0-0.5-0.1-0.7-0.2 0.3-0.8 0.2-1.5-0.6-1.8 0.4-0.2 1.1-0.9 0.7-1.5 0.4-0.1 1.1-0.8 0.7-1.4 0.5-0.3 1.1-0.7 1.2-1.4 0.7 0.2 1.1 0 1.3-0.4 0.4 0.1 0.7 0.3 0.9 0.4 0.4 0 0.7-0.1 0.9-0.3q0.5 0.2 0.8 0.5c0.3 0 0.7 0 0.9-0.2 0.4 0.2 0.9 0.6 1.4 0.3 0.2 0.4 0.6 0.4 0.9 0.7 0.2 0.2 0.2 0.8 0.7 0.8zm-0.2 15.7c0.1 0.1 0.2 0 0.4 0q-0.1-0.2-0.3-0.3-0.1 0.1-0.1 0.3zm-4.8-0.7c0-0.1 0.1-0.1 0.1-0.1 0.1-0.4 0-0.6-0.3-0.7-0.2 0.3-0.1 0.7 0.2 0.8zm0.3-1.2c-0.1 0.3 0.1 0.6 0.5 0.6 0.2-0.4-0.1-0.5-0.5-0.6zm-9.7-8.2c0-0.4-0.1-1-0.4-1.3-0.2 0.5-0.1 1.1 0.4 1.3zm10.6 0.6c0.1 0.1 0.2 0 0.4 0 0-0.1 0.1-0.2 0.2-0.4-0.3-0.4-0.8-0.1-0.6 0.4zm-0.4-1.5c0.5 0.1 1.1-0.5 1.1-1.1q0-0.1-0.1-0.1c-0.3 0.4-0.8 0.7-1 1.2zm2.8-1.7c-0.4 0.7-1 1.3-1.4 1.7 0.8 0.3 1.7-0.5 1.6-1.6-0.1 0-0.1-0.1-0.2-0.1zm-1.5-0.6c0.4 0 0.6-0.5 0.7-0.9-0.4-0.2-0.7 0.5-0.7 0.9zm1.9-1.2c-0.9-0.7-0.6 1.3 0.1 0.7 0-0.4 0-0.5-0.1-0.7zm-2-0.6c0.2-0.2 0.3-0.4 0.4-0.9q-0.1 0-0.2 0c-0.1 0.3-0.6 0.6-0.2 0.9zm1.2-0.8c0 0.4 0.5 0.5 1 0.6 0.1-0.6-0.6-0.7-1-0.6zm-5.4-0.6c0.1 0.1 0.1 0.1 0.2 0.2 0.1-0.1 0.2-0.3 0.2-0.5-0.1-0.1-0.1-0.1-0.3-0.2-0.1 0.1-0.1 0.3-0.1 0.5zm1-0.5c0 0.2 0.1 0.3 0.3 0.4 0-0.1 0-0.2 0.1-0.3-0.1-0.1-0.3-0.2-0.4-0.1zm-5.1 17.6c0.1-0.3-0.3-0.5-0.7-0.5-0.2-0.3-0.3-0.6-0.6-0.7-0.2 0.7 1.2 2 1.3 1.2z"/>
						<path id="path746" fill-rule="evenodd" class="s6" d="m142.4 162.3c0 0-0.1 1 0.2 2.2 0.3 1.2 0.9 2 0.9 2l-0.6-3.3z"/>
						<path id="path750" fill-rule="evenodd" class="s6" d="m144.1 167.8c0 0 0 0.7 0.2 1 0.3 0.2 0.6 0.4 0.6 0.4z"/>
						<path id="path754" fill-rule="evenodd" class="s6" d="m160.7 167.6c0.6-0.4 2.2-2.7 2.2-3.3 0-0.6-1.3 1.5-1.3 1.5z"/>
						<path id="path758" fill-rule="evenodd" class="s6" d="m160 168.5c0 0-0.4 1-0.8 1.2-0.4 0.3-0.9 0.3-0.9 0.3l1-1.1z"/>
						<path id="path762" fill-rule="evenodd" class="s6" d="m154.4 156c0.2 0.3-0.6 0.8-0.6 0.8l0.2-0.6z"/>
						<path id="path766" fill-rule="evenodd" class="s6" d="m153.9 157.9c0.3-0.2 0-0.5-0.1-0.4-0.2 0-0.4 0.4-0.4 0.4z"/>
						<path id="path770" fill-rule="evenodd" class="s6" d="m153 159.8c-0.1 0.5 0.3 0.9 0.3 0.9l0.1-0.6z"/>
						<path id="path774" fill-rule="evenodd" class="s6" d="m152.7 158.6l0.6 0.3-0.3 0.1z"/>
						<path id="path778" fill-rule="evenodd" class="s6" d="m157 148.7l-1.1 2.2-0.5 0.2 0.5-1.4 0.7-0.9z"/>
						<path id="path782" fill-rule="evenodd" class="s6" d="m155.1 147.9l-0.5 3.4 0.3 0.3 0.4-2.3z"/>
						<path id="path786" fill-rule="evenodd" class="s6" d="m153.8 153.9c0.1 0.2 0.1 0.5 0.1 0.5h-0.3z"/>
					</g>
					<g id="g7601">
						<path id="path196" fill-rule="evenodd" class="s1" d="m96.4 147.4c0.1 0.3 0.5 0.3 0.7 0.5 0.8-1 2.2-1.5 3.4-0.8 1.1 0.7 3.4 3.3 2.6 5.1-0.2 0.3-0.7 0.6-0.6 0.9 0.1 0.5 0.9 0.3 1.3 0.5 0.5 0.3 0.6 1.4 0.6 2.4-0.1 1.3-0.6 3.2-1.5 3.8-0.2 0.2-0.8 0.5-1.1 0.4-0.4 0-0.6-0.4-1.2-0.3-0.5 0.1-0.9 1.4-1.6 1.7-0.5 0.3-1.5 0.6-2.5 0.7-0.7 0.1-1.5 0-2.2-0.1-0.3 0-0.6 0-0.9-0.1-0.7-0.2-1.4-1.6-0.7-2.5-0.1-0.4-0.6-0.2-1-0.3-0.3-0.1-0.5-0.5-0.7-0.5-0.4 0-0.9 0.4-1.5 0.2-1-0.3-1.7-1.8-1.8-3.1-0.2-2.1 0.5-3.9 2.7-3.6 0.1-0.4-0.1-0.5-0.1-0.8-0.3-0.3-0.9-0.3-1.2-0.5 0-0.9 0.3-1.7 0.8-2.3 0.5-0.7 1.4-1.5 2.2-1.8 0.3-0.2 0.8-0.4 1.1-0.5 0.1 0 0.3 0.1 0.5 0 0.5 0 1.2-0.4 2-0.2 0.5 0.2 0.8 0.5 0.7 1.2zm1 5.2c-0.4 0.4-0.9 0.4-1.3 0.5 0.1-0.2 0.1-0.4-0.2-0.4-0.1 0.2 0.2 0.3-0.1 0.4-0.8-0.1-1.7-1-2.3-0.5-0.1 0.8 0.5 1.2 0.7 1.9-0.4 0.5-1.1 0.7-1.1 1.7 0.1 0 0.2 0.1 0.4 0.1 0.7-0.8 2-0.1 2.3 0.7-0.1 0.5 0.1 1 0.5 1 0.3-0.2 0.2-0.6 0.1-0.9 0.3-0.6 0.5-0.9 1-1.3 0.3-0.2 0.5-0.4 0.6-0.6 0.3-0.2 0.9-0.3 0.9-0.6 0.1-0.2-0.4-0.5-0.6-0.8-0.3-0.5-0.2-1 0.1-1.4-0.3-0.9-0.6-0.1-1 0.2zm5.3 2.3c-0.1 0.6 0.1 1.4 0 2.1 0 0.2-0.2 0.4-0.1 0.6 0.8-0.2 0.6-2.5 0.2-2.9h-0.1zm-12.3 3c0-0.1 0.2-0.1 0.2-0.2 0-0.3-0.3-0.3-0.5-0.4-0.2-0.4-0.2-0.9-0.2-1.5-0.2-0.1 0 0.1-0.1 0.1-0.1-0.6 0.1-1.4-0.2-1.7-0.2 1.2-0.7 3.5 0.8 3.7zm7-1.3c0.2 0 0.2 0.2 0.3 0.2 0.4-0.1 0.3-0.6 0.6-0.7-0.2-0.7-0.7 0.2-0.9 0.5zm1.9-7.7c0.3 0.7 1.4 0.5 1.3 1.7 0.2 0.2 0.3 0 0.5 0.1 0.1-1.1-1-1.7-1.8-1.8zm-5.7-0.8c-0.5 0.5-1.2 0.8-1.7 1.4-0.2 0.1-0.3 0.3-0.3 0.5 0.5-0.4 0.9-1 1.6-1.2q0 0.2 0.3 0.2c0.2-0.2 0.5-0.3 0.5-0.7-0.1-0.1-0.2-0.1-0.4-0.2zm1.8 12.2c-0.2-0.1-0.4-0.1-0.5 0 0 0.2 0.2 0.4 0.3 0.5 0.6 0.1 2.1-0.4 2.3-0.6-0.4-0.5-1.5 0-2.1 0.1z"/>
						<path id="path200" fill-rule="evenodd" class="s6" d="m94 148.3c0 0.4-0.3 0.5-0.5 0.6q-0.3 0-0.3-0.2c-0.7 0.2-1.1 0.8-1.6 1.3 0-0.2 0.1-0.5 0.3-0.6 0.5-0.5 1.2-0.8 1.7-1.3 0.2 0 0.3 0 0.4 0.2z"/>
						<path id="path204" fill-rule="evenodd" class="s6" d="m101.1 150.7c-0.2-0.2-0.3 0-0.5-0.2 0.1-1.1-1-1-1.3-1.7 0.8 0.2 1.9 0.7 1.8 1.9z"/>
						<path id="path208" fill-rule="evenodd" class="s6" d="m98.4 152.4c-0.3 0.4-0.4 0.9-0.1 1.4 0.2 0.3 0.7 0.6 0.6 0.8 0 0.3-0.6 0.4-0.9 0.6-0.1 0.2-0.3 0.4-0.6 0.6-0.5 0.4-0.7 0.7-1 1.3 0.1 0.3 0.2 0.7-0.1 0.9-0.4 0-0.6-0.5-0.5-1-0.3-0.8-1.6-1.5-2.3-0.7-0.2 0-0.3-0.1-0.4-0.1 0-1 0.7-1.2 1.1-1.7-0.2-0.7-0.8-1.1-0.7-1.9 0.6-0.5 1.5 0.4 2.3 0.5 0.3-0.1 0-0.2 0.1-0.4 0.3 0 0.3 0.2 0.2 0.4 0.4-0.1 0.9-0.1 1.3-0.5 0.4-0.3 0.7-1.1 1-0.2zm-1.3 1.5c-0.4-1.2-2.7 0.2-2 1.2 0.3 0 0.4 0.2 0.6 0.3 0.8-0.2 1.6-0.7 1.4-1.5z"/>
						<path id="path212" fill-rule="evenodd" class="s7" d="m95.7 155.4c-0.2-0.1-0.3-0.3-0.7-0.3-0.6-1 1.7-2.4 2.1-1.2 0.2 0.8-0.6 1.3-1.4 1.5z"/>
						<path id="path216" fill-rule="evenodd" class="s6" d="m89.6 154.1c0.3 0.4 0.1 1.2 0.2 1.8 0.1 0-0.1-0.3 0.1-0.2 0 0.6 0 1.2 0.2 1.6 0.2 0.1 0.5 0.1 0.5 0.3 0 0.2-0.2 0.1-0.2 0.3-1.5-0.2-1-2.6-0.8-3.8z"/>
						<path id="path220" fill-rule="evenodd" class="s6" d="m102.7 154.7h0.1c0.4 0.4 0.6 2.7-0.2 2.9-0.1-0.2 0.1-0.4 0.1-0.6 0.1-0.7-0.1-1.5 0-2.1z"/>
						<path id="path224" fill-rule="evenodd" class="s6" d="m98.3 156.1c-0.3 0-0.2 0.5-0.6 0.6-0.1 0-0.1-0.1-0.3-0.1 0.2-0.3 0.7-1.2 0.9-0.5z"/>
						<path id="path228" fill-rule="evenodd" class="s6" d="m92.3 158.6c0.7 0.1-0.2 0.5 0 0"/>
						<path id="path232" fill-rule="evenodd" class="s12" d="m108.3 162.5c0 0.2 0.2 0.1 0.3 0.2-0.1 0.5-0.3 0.7-0.5 1.1 0.1 0.1 0.1 0.2 0.2 0.2q-0.6 1.2-1.4 2.3c-0.1 0.2 0.1 0.2 0.1 0.4-0.4 0.6-1.1 0.9-1.5 1.5-0.1 0.1-0.2 0.3-0.3 0.4-0.2 0.2-0.4 0.2-0.6 0.3-0.1 0.1-0.2 0.3-0.4 0.4-0.6 0.4-1.4 0.5-1.9 1.1 0-1 0.3-1.6 0.4-2.4-0.5 0.2-0.5 1-0.7 1.4-0.5-0.1-0.6-0.8-0.7-1.3-0.1-0.5-0.3-1.1-0.3-1.7 0.2 0.1 0.3 0 0.5-0.1-0.1-0.9 0.1-1.6 0.3-2.1 0.2 0 0.2 0.2 0.3 0.2 0.6-0.4 0.5-1.1 0.8-1.6 0.3-0.4 0.8-0.6 1-1.1 0.2 0.1 0.3 0 0.4 0 0.9-1.5 2.4-2.2 4.3-2.6q0.1 0 0.1 0.1c-0.2 0.8 0.2 1.5 0.1 2.1-0.1 0.4-0.5 0.7-0.5 1.2zm-2.2-0.1c-0.5 0.8-1.1 1.3-1.4 2.3-0.2 0.2-0.6 0.5-0.4 0.8 0.5-0.1 0.7-0.7 0.9-1.1 0.2-0.4 0.5-0.9 0.8-1.2 0.2-0.2 0.5-0.3 0.4-0.7 0-0.1-0.2-0.1-0.3-0.1zm-2.6 5.1c0.2-0.4 0.1-0.9 0-1.2 0.1 0.1 0.3 0.1 0.3 0.1 0.1-0.1 0.4-0.3 0.2-0.6-0.3 0-0.3 0.3-0.5 0.3 0-0.1-0.1-0.4 0-0.5-0.2 0.1-0.1-0.2-0.3-0.1-0.1 0.5-0.5 2 0.3 2z"/>
						<path id="path236" fill-rule="evenodd" class="s6" d="m97.5 160.2c-0.2 0.2-1.7 0.7-2.3 0.5-0.1 0-0.3-0.2-0.3-0.4 0.1-0.1 0.3-0.1 0.4 0 0.7-0.1 1.8-0.6 2.2-0.1z"/>
						<path id="path240" fill-rule="evenodd" class="s6" d="m106.4 162.5c0.1 0.4-0.2 0.5-0.4 0.7-0.3 0.3-0.6 0.8-0.8 1.2-0.2 0.4-0.4 1-0.9 1.1-0.2-0.3 0.2-0.6 0.4-0.8 0.3-1 0.9-1.5 1.4-2.3 0.1 0 0.3 0 0.3 0.1z"/>
						<path id="path244" fill-rule="evenodd" class="s3" d="m95.6 163.3c0.1 0.8 0.2 1.6 0.3 2.5-0.2-0.1-0.3-0.4-0.3-0.7-0.6-0.4-0.6-1.6-1.5-1.6-0.1-0.2-0.3-0.3-0.3-0.5 0.5 0 1.4 0 1.8 0.3z"/>
						<path id="path248" fill-rule="evenodd" class="s12" d="m97.5 163c0.3 1.9 0.8 3.6 1.6 5 0.4 0.6 0.9 1.1 1.3 1.7 0.5 0.6 0.8 1.2 1.2 1.8 0.7 0.9 1.7 1.8 2.6 2.6 1.6 1.3 3.4 2.5 4.4 4.4-0.3 0.5-0.3 1.3-0.5 2-0.4-0.6-0.6-1.3-1-1.8-0.8-1.1-1.9-1.8-2.8-2.6 0-0.2-0.1-0.3-0.1-0.4-1.2-0.7-2.1-1.7-3.1-2.6 0-0.1-0.1-0.2-0.1-0.3-0.5-0.3-0.6-1-1-1.5-0.3-0.3-0.8-0.5-0.8-1-0.6-0.3-0.9-1.1-1.3-1.8-0.3-0.5-0.6-0.9-0.8-1.4-0.5-1.1-0.6-2.5-0.9-3.9 0.4 0 0.8-0.1 1.3-0.2z"/>
						<path id="path252" fill-rule="evenodd" class="s6" d="m90.4 164.4c0 0.3-0.5 0.1-0.4-0.1 0.1-0.1 0.3 0 0.4 0.1z"/>
						<path id="path256" fill-rule="evenodd" class="s6" d="m90.8 164.6c0.2 0 0.3 0.2 0.5 0.2q0 0.3-0.4 0.2c0-0.1-0.2-0.2-0.1-0.4z"/>
						<path id="path260" fill-rule="evenodd" class="s6" d="m91.3 165c0.3 0.1 0.6 0.1 0.8 0.2-0.1 0.3-0.3 0.3-0.5 0.3-0.2-0.1-0.3-0.2-0.3-0.5z"/>
						<path id="path264" fill-rule="evenodd" class="s6" d="m103.2 165.5c0.2-0.1 0.1 0.2 0.3 0.1-0.1 0.1 0 0.4 0 0.5 0.2 0 0.2-0.3 0.5-0.3 0.2 0.3-0.1 0.5-0.2 0.6 0 0-0.2 0-0.3-0.1 0.1 0.3 0.2 0.8 0 1.2-0.8 0-0.4-1.4-0.3-2z"/>
						<path id="path268" fill-rule="evenodd" class="s12" d="m109.8 166.1c0.2 0-0.1 0.2 0 0.4 0.6 0.3 1.3 0 1.8 0.4 0 0 0 0.2 0.1 0.3 0.1 0.1 0.3 0.2 0.5 0.3q0.4 0.5 0.5 1.3c0.5 0.7 0.5 1.9 0.7 2.8-0.7 0.2-1.1-0.3-1.7-0.2-0.2 0-0.4 0.2-0.6 0.2-0.5 0-1.1-0.4-1.6-0.4-0.6 0-1.3 0.1-1.9 0-1-0.1-1.5-0.7-2.1-1-0.3-0.1-0.2 0.2-0.3 0.3-0.5-0.1-0.6-0.4-0.8-0.8 0.7-0.6 1.5-1.5 2.6-1.4 0.4 0 0.8 0.3 1.2 0.3 0.7 0.1 1.3-0.3 1.9 0.1q0.1-0.1 0.2-0.2c-0.1-0.9-1.5-0.4-2.1-0.2-0.3-0.2-1-0.5-1.8-0.3-0.1-0.1 0.2-0.3 0.3-0.4 0.3-0.4 0.8-0.8 1.2-1.1 0.7 0.4 1-0.4 1.9-0.4zm-0.7 2.6c0 0.2 0.2 0.2 0.5 0.2 0-0.3-0.3-0.3-0.5-0.2zm1.4 0.6c-0.1-0.1-0.2-0.3-0.4-0.3 0 0.2 0.2 0.5 0.4 0.3z"/>
						<path id="path272" fill-rule="evenodd" class="s3" d="m96.2 167q0.3 0.3 0.3 0.7c-0.2 0-0.3-0.2-0.6-0.2 0.1-0.2 0.3-0.3 0.3-0.5z"/>
						<path id="path276" fill-rule="evenodd" class="s6" d="m109.6 168.9c-0.3 0-0.5 0-0.5-0.2 0.2-0.1 0.5-0.1 0.5 0.2z"/>
						<path id="path280" fill-rule="evenodd" class="s6" d="m110.1 169c0.2 0 0.3 0.2 0.4 0.3-0.2 0.2-0.4-0.1-0.4-0.3z"/>
						<path id="path284" fill-rule="evenodd" class="s12" d="m95.9 170.9c-1.3 0-1.9 0.7-2.7 1.3-0.5-0.1-0.9 0.2-1.2 0.4 0.1 0.3 0.3 0 0.7 0-0.2 0.3-0.3 0.6-0.6 0.8-0.4 0.2-1.2 0.2-1 0.9 0.6-0.2 1.1-0.6 1.6-0.9 0.1-0.1 0.1-0.2 0.2-0.4 0.2-0.3 1.5-1.4 2.2-1.6 0.5-0.1 0.7 0 1 0.2-0.1 0.2-0.2 0.6-0.3 0.8-0.1 0.3 0.2 0.2 0.2 0.4-0.2 0.5-1 0.7-0.9 1.4-0.2 0.3-0.7 0.3-0.6 0.9-0.2 0.3-0.8 0.3-0.8 0.8-1 0.3-1.7 1-2.9 1.1-0.2 0-0.2 0.2-0.3 0.3-1-0.2-1.9 0.4-2.5 0-0.1-0.1 0.1-0.3 0.2-0.4 0.3-1 0.6-1.9 1.1-2.8 0.1-1.1 1.1-1.8 1.9-2.4 0.1 0 0.1-0.2 0.2-0.3 0.9-0.6 2.4-1.3 3.8-0.6 0.3-0.1 0.7-0.1 0.7 0.1z"/>
						<path id="path288" fill-rule="evenodd" class="s1" d="m108.9 180.6c-0.1-0.4 0.2-0.6 0 0"/>
						<path id="path292" fill-rule="evenodd" class="s12" d="m87.1 161c0.4 0 0.7 0.5 1.1 0.7 0.1 0 0.3 0 0.5 0 0.5 0.1 0.8 0.6 1.4 0.1 0.4 0.4 0.9 0.6 1.7 0.4 0.6 0.6 1.6 0.9 2 1.8 0.6 0.1 0.9 0.5 0.9 1.3 0.7 0.3 0.5 1.4 0.9 2-1.4-0.2-1.7-2-2.5-3-0.1 0.8 0.4 1.3 0.6 1.9-0.3 0-0.4-0.2-0.8-0.2 0.3 0.7 1.3 0.7 1.6 1.4 0.5 0 0.8 0.2 1 0.5-0.6 0.1-1.1 0.6-1.7 0.6-0.3 0-0.7-0.2-1-0.2-0.5-0.1-0.8 0-1.2-0.2-0.2-0.1-0.3-0.3-0.5-0.4-0.5-0.1-0.9-0.1-1.2-0.3-0.4-0.2-0.7-0.6-1-0.7 0-0.1 0.2-0.1 0.3-0.3-0.7-0.7-1.8-1.5-1.7-2.8-0.1-0.3-0.3-0.6-0.3-1 0.2 0 0.2-0.1 0.4-0.1 0-0.7-0.4-0.9-0.5-1.5zm3.8 4q0.4 0.1 0.4-0.2c-0.2-0.1-0.3-0.2-0.5-0.2-0.1 0.2 0.1 0.3 0.1 0.4zm-0.9-0.7c-0.1 0.2 0.4 0.4 0.4 0.1-0.1-0.1-0.3-0.2-0.4-0.1zm1.6 1.2c0.2 0 0.4 0 0.5-0.3-0.2-0.1-0.5-0.1-0.8-0.2 0 0.3 0.1 0.4 0.3 0.5z"/>
						<path id="path296" fill-rule="evenodd" class="s6" d="m97.2 146.7c0.8-0.4 1.8-0.9 2.9-0.5 1.7 0.5 3.5 2.7 3.8 4.5 0.2 0.8 0.1 1.5-0.2 2.1 2.5 1.1 1.6 6.4-0.2 7.7-0.7 0.5-1.7 0.6-2.4 0.2-0.6 1.1-1.7 1.7-2.9 2.1 0 3.5 1.7 5.5 3.3 7.4 0.1-0.5-0.4-0.9-0.6-1.5-0.2-1.1-0.5-2.5-0.3-3.6 0.2-0.2 0.3 0.2 0.4 0.3 0.5-0.8 0.5-2.1 1.4-2.5 0.2-0.5 0.7-0.9 1.1-1.4 0.1-0.1 0.2-0.4 0.3-0.5 0.2-0.2 0.5-0.2 0.7-0.4 0.7-0.5 1.2-1.2 2.3-1.4 0.9-0.2 1.8-0.7 2.9-0.5-0.1 0.3-0.6 0.4-0.6 0.8-0.1 0.3 0.1 0.7 0.3 0.9-0.2 0.5-0.1 1-0.4 1.3 0 0.3 0.3 0.2 0.4 0.4-0.1 0.4-0.3 0.6-0.4 0.9-0.1 0.2 0.2 0.1 0.2 0.3-0.4 0.9-0.9 1.6-1.4 2.4 0.1 0.1 0.2 0.1 0.3 0.2 0.8-0.3 1.9-0.1 2.9-0.2 0.1 0.2 0 0.4-0.1 0.4 1.4 0.3 1.9 1.5 2.5 2.5-0.1 0.4 0.3 0.8 0.3 1.3 0 0.1-0.1 0.3 0 0.4 0 0.6 0.6 1.1 0.2 1.6 0 0.3 0.3 0.2 0.3 0.4-0.4 0.3-0.7-0.1-1-0.2-0.2-0.1-0.5-0.1-0.7-0.1-0.3-0.1-0.4-0.3-0.7-0.3-0.2 0-0.4 0.2-0.6 0.2-0.5 0.1-1.1 0-1.7 0-0.6-0.1-1.2 0.1-1.7 0-0.8-0.1-1.4-0.5-1.9-0.9-0.9 0.3-1.5-0.5-1.9-1-0.4 0.1-0.7 0.1-0.9 0.3-0.3 0.2-0.3 0.7-0.6 0.8 0 0.2 0.2 0.3 0.1 0.5 0.7 0.9 1.7 1.7 2.6 2.5 0.1-0.2 0.3-0.4 0.5-0.5 0.3 0.4 0.3 0.8 0.5 1.2 0.4 0.6 1.2 1 1.8 1.6 0.7 0.7 1.6 1.6 1.5 2.9 0 0.2-0.1 0.5-0.1 0.8 0 0.2 0.1 0.3 0 0.5 0 0.1-0.2 0.2-0.3 0.4-0.1 0.4 0 0.9-0.3 1.2-0.6 0.1-0.5-0.6-0.7-0.9-0.3 0-0.3 0.1-0.5 0q-0.8-2.1-2.6-3.7c-0.6-0.5-1.2-1-1.7-1.5-0.6-0.6-1.1-1.3-1.8-1.7-0.4-0.2-1-0.2-1.3-0.6 0.1-0.2 0.4-0.2 0.6-0.2-0.7-1.2-1.7-2.5-3.9-2.2-0.1 0.4-0.4 0.7-0.1 1-0.1 0.8-0.9 1.1-0.8 1.8-0.3 0.3-0.5 0.6-0.9 0.7 0 0.1 0.1 0.2 0 0.4-0.2 0.3-0.7 0.4-0.8 0.8-1.1 0.6-2.2 0.7-3.1 1.4-0.1 0-0.2 0.2-0.3 0.3-0.5 0.2-1.1 0-1.5 0.3-0.9-0.4-2-0.2-2.8-0.2 0-0.5 0.3-0.6 0.7-0.7q1-1.4 1.4-3.6c0.3-0.2 0.3-0.5 0.6-0.9 0.2-0.3 0.8-0.5 1-0.9 0.1-0.1 0.1-0.3 0.2-0.5 0.2-0.2 0.7-0.3 1.2-0.6 0.1-0.1 0.2-0.3 0.4-0.4 0.4-0.2 1-0.2 1.4-0.3 0.4 0.2 1.2 0.2 1.6 0 0.9 0.5 2 0.8 3.3 0.7-0.6-0.7-1-2.4-2-2.4-0.5 0-0.8 0.5-1.3 0.7-1.3-0.1-3 0.2-3.7-0.6-1.1 0-1.8-0.3-2.4-0.8 0-0.2 0-0.1 0-0.3-0.8-0.4-1.3-1.3-1.7-2.2-0.3-0.7-0.4-1-0.5-1.8 0-0.4-0.3-0.7-0.3-1.2 0-0.1 0.2-0.1 0.4-0.2-0.2-0.6-0.8-1.3-0.7-2.1 0.5-0.1 0.7 0.4 0.8 0.7 0.4 0.2 0.7 0.4 1 0.6 0.5-0.4 0.9 0.1 1.3 0.2 0.1 0 0-0.3 0.1-0.4 0.7 0 0.9 0.5 1.4 0.7 0.4 0.3 0.9 0.2 1.3 0.4-0.2-0.7-0.4-1.2-0.3-2-0.2-0.1-0.4-0.2-0.6-0.3-4.2 1.5-6.1-6.8-2.4-7.9-0.5-0.6-0.7-1.5-0.3-2.6 0.5-1.5 2.3-2.7 3.9-3.3 0.2-0.1 0.5-0.3 0.7-0.3 0.2 0 0.5 0 0.8 0 1.6 0 2.9-0.1 3.3 1.1zm-1.3 20.8c0.3 0 0.4 0.2 0.6 0.2q0-0.4-0.3-0.7c0 0.2-0.2 0.3-0.3 0.5zm12-1c-0.4 0.3-0.9 0.7-1.2 1.1-0.1 0.1-0.4 0.3-0.3 0.4 0.8-0.2 1.5 0.1 1.8 0.3 0.6-0.2 2-0.7 2.1 0.2q-0.1 0.1-0.2 0.2c-0.6-0.4-1.2 0-1.9-0.1-0.4 0-0.8-0.3-1.2-0.3-1.1-0.1-1.9 0.8-2.6 1.4 0.2 0.4 0.3 0.7 0.8 0.8 0.1-0.1 0-0.4 0.3-0.3 0.6 0.3 1.1 0.9 2.1 1 0.6 0.1 1.3 0 1.9 0 0.5 0.1 1.1 0.4 1.6 0.4 0.2 0 0.4-0.2 0.6-0.2 0.6-0.1 1 0.4 1.7 0.2-0.2-0.9-0.2-2.1-0.7-2.8q-0.1-0.8-0.5-1.3c-0.2-0.2-0.4-0.2-0.5-0.3-0.1-0.1-0.1-0.3-0.1-0.3-0.5-0.4-1.2-0.1-1.8-0.4-0.1-0.2 0.2-0.4 0-0.4-0.9 0-1.2 0.8-1.9 0.4zm-11.7-3.3c0.3 1.4 0.4 2.8 0.9 3.9 0.2 0.5 0.5 0.9 0.8 1.4 0.4 0.7 0.7 1.5 1.3 1.8 0 0.5 0.5 0.7 0.8 1 0.4 0.5 0.5 1.2 1 1.5 0 0.1 0.1 0.2 0.1 0.3 1 0.9 1.9 1.9 3.1 2.6 0 0.1 0.1 0.2 0.1 0.4 0.9 0.8 2 1.5 2.8 2.6 0.4 0.5 0.6 1.2 1 1.8 0.2-0.7 0.2-1.5 0.5-2-1-1.9-2.8-3.1-4.4-4.4-0.9-0.8-1.9-1.7-2.6-2.6-0.4-0.6-0.7-1.2-1.2-1.8-0.4-0.6-0.9-1.1-1.3-1.7-0.8-1.3-1.3-3.1-1.6-5-0.5 0.1-0.9 0.2-1.3 0.2zm-2.4-0.2c0 0.2 0.2 0.3 0.3 0.5 0.9 0 0.9 1.2 1.5 1.6 0 0.3 0.1 0.6 0.3 0.7-0.1-0.9-0.2-1.7-0.3-2.5-0.4-0.3-1.3-0.3-1.8-0.3zm-6.2-0.5c-0.2 0-0.2 0.1-0.4 0.1 0 0.4 0.2 0.7 0.3 1-0.1 1.3 1 2.1 1.7 2.8-0.1 0.2-0.3 0.2-0.3 0.3 0.3 0.2 0.6 0.5 1 0.7 0.3 0.2 0.7 0.2 1.2 0.3 0.2 0.1 0.3 0.3 0.5 0.4 0.4 0.2 0.7 0.1 1.2 0.2 0.3 0 0.7 0.2 1 0.2 0.7 0 1.1-0.5 1.8-0.6-0.3-0.3-0.6-0.5-1.1-0.5-0.3-0.7-1.3-0.7-1.6-1.4 0.4 0 0.5 0.2 0.8 0.2-0.2-0.6-0.7-1.1-0.6-1.9 0.8 1 1.1 2.8 2.6 3-0.5-0.6-0.3-1.7-1-2 0-0.8-0.3-1.2-0.9-1.3-0.4-0.9-1.4-1.2-2-1.8-0.8 0.2-1.3 0-1.7-0.4-0.6 0.5-0.9 0-1.4-0.1-0.2 0-0.4 0-0.5 0-0.4-0.1-0.7-0.7-1.1-0.7 0.1 0.6 0.5 0.8 0.5 1.5zm21.2-1.2c0.1-0.6-0.3-1.3-0.1-2.1q0-0.1-0.1 0c-1.9 0.3-3.4 1.1-4.3 2.5-0.1 0-0.2 0.1-0.4 0-0.2 0.5-0.7 0.7-1 1.1-0.3 0.5-0.2 1.2-0.8 1.6-0.1 0-0.1-0.2-0.3-0.2-0.2 0.5-0.4 1.2-0.3 2.1-0.2 0.1-0.3 0.2-0.5 0.1 0 0.6 0.2 1.2 0.3 1.7 0.1 0.5 0.2 1.2 0.7 1.3 0.2-0.4 0.2-1.2 0.7-1.4-0.1 0.8-0.4 1.4-0.4 2.4 0.5-0.6 1.3-0.7 1.9-1.1 0.2-0.1 0.3-0.3 0.4-0.4 0.2-0.1 0.4-0.1 0.6-0.3 0.1-0.1 0.2-0.3 0.3-0.4 0.4-0.6 1.1-0.9 1.5-1.5 0-0.2-0.2-0.2-0.1-0.4q0.8-1.1 1.4-2.3c-0.1 0-0.1-0.1-0.2-0.2 0.2-0.4 0.4-0.6 0.5-1.1-0.1-0.1-0.3 0-0.3-0.2 0-0.5 0.4-0.8 0.5-1.2zm-13.1-15.1c-0.8-0.2-1.5 0.2-2 0.2-0.2 0-0.4 0-0.5 0-0.3 0.1-0.8 0.3-1.1 0.5-0.8 0.4-1.7 1.1-2.2 1.8-0.5 0.6-0.8 1.4-0.8 2.3 0.3 0.2 0.9 0.2 1.2 0.5 0 0.3 0.2 0.4 0.1 0.8-2.2-0.3-2.9 1.5-2.7 3.6 0.1 1.3 0.8 2.8 1.8 3.1 0.6 0.2 1.1-0.2 1.5-0.2 0.2 0 0.4 0.4 0.7 0.5 0.4 0.1 0.9-0.1 1 0.3-0.7 0.9 0 2.3 0.7 2.5 0.3 0.1 0.6 0.1 0.9 0.1 0.7 0.1 1.5 0.2 2.2 0.1 1-0.1 2-0.4 2.5-0.7 0.7-0.3 1.1-1.6 1.6-1.7 0.6-0.1 0.8 0.3 1.2 0.4 0.3 0 0.9-0.3 1.1-0.5 0.9-0.6 1.4-2.5 1.5-3.8 0-1-0.1-2.1-0.6-2.4-0.4-0.2-1.2 0-1.3-0.5-0.1-0.3 0.4-0.6 0.6-0.9 0.8-1.8-1.5-4.4-2.6-5.1-1.2-0.7-2.6-0.2-3.4 0.8-0.2-0.2-0.6-0.2-0.7-0.5 0.1-0.7-0.2-1-0.7-1.2zm-0.4 24.6c-1.5-0.7-3 0-3.9 0.6-0.1 0.1-0.1 0.3-0.2 0.3-0.8 0.6-1.8 1.3-1.9 2.4-0.5 0.9-0.8 1.8-1.1 2.8-0.1 0.1-0.3 0.3-0.2 0.4 0.6 0.4 1.5-0.2 2.5 0 0.1-0.1 0.1-0.3 0.3-0.3 1.2-0.1 1.9-0.8 2.9-1.1 0-0.5 0.6-0.5 0.8-0.8-0.1-0.6 0.4-0.6 0.5-0.9 0-0.7 0.8-0.9 1-1.4 0-0.2-0.3-0.1-0.2-0.4 0.1-0.2 0.2-0.6 0.3-0.8-0.3-0.2-0.5-0.3-1-0.2-0.7 0.2-2 1.3-2.2 1.6-0.1 0.2-0.1 0.3-0.2 0.4-0.5 0.3-1 0.7-1.6 0.9-0.2-0.7 0.6-0.7 1-0.9 0.3-0.2 0.4-0.5 0.6-0.8-0.4 0-0.6 0.3-0.7 0 0.3-0.2 0.7-0.5 1.2-0.4 0.8-0.6 1.4-1.3 2.7-1.3 0-0.2-0.4-0.2-0.6-0.1z"/>
						<path id="path790" fill-rule="evenodd" class="s6" d="m90.3 175.1c-0.2 0.1-0.6 0.6-0.6 0.6h0.4z"/>
					</g>
					<g id="g7585">
						<path id="path794" fill-rule="evenodd" class="s6" d="m135.7 133.5c1.6 0.6 2.9 1.3 3.4 1.6 1.8 1.2-2.2 3.9-4.1 3.9-1.6 0.1-4.1-1.9-5.4-3.1q0.1 0.4 0.3 0.9l2.4 1.7c0 0 0.6 2.8 1.3 3.8 0.8 0.9-1.7-1-2.1-3.1-0.1-0.2-0.8-0.7-1.3-1.1q0.1 0.5 0.1 1.2l1 1.7c0 0 0.3 2 0.5 2.8 0.3 1.1 1.1 2 1.1 2 0 0-1.1-0.1-1.6-1.2-0.3-0.8-0.7-3.2-0.7-3.2l-0.2-0.3c-0.1 1-0.6 2.2-1.7 4.2-1.8 3.2-3.1 3.6-3.7 3.6-0.4 0-4.7-3.7-5.3-7.8l-0.3 0.5c0 0-0.4 2.3-0.7 3.2-0.4 1-1.5 1.2-1.5 1.2 0 0 0.9-0.9 1-1.8 0.1-0.8 0.6-3.1 0.6-3.1l0.9-1.9q0.1-0.1 0.1-0.2 0.1-0.5 0.2-1c-0.6 0.4-1.4 1-1.4 1.2-0.5 2.1-2.9 4-2.2 3.1 0.7-1 1.4-3.8 1.4-3.8l2.7-1.9q0.2-0.5 0.5-0.9c-1.1 0.9-3.8 2.9-5.3 3.3-2 0.5-7-1.6-4.4-3.4 1.2-0.8 2.1-1.4 3.1-1.8-1.7 0.5-2.7 0.8-3.8 0.3-1.6-0.7-5.6-2.7-3.3-5.9 2.3-3.1 11.2 1.2 13.9 1.9-0.4-0.6-1.6-2-1.7-2.1-0.1-0.2 1.2-1.4 1.2-1.4 0 0-0.7-0.9-0.6-1.4 0.2-0.4 0.1-0.1 0.2 0.2 0.2 0.3 1 1.1 0.9 1.5-0.1 0.3-0.7 0.8-0.7 1.1 0 0.2 1 1.3 1.2 1.5q0.1 0 0.1-0.1c0.7-0.8 0.4-1.1 0.3-1.6-0.1-0.6-0.3-2 0.7-2.1q0.3-0.1 0.5-0.2c-0.1-0.4-0.3-1.3-0.7-1.6-0.5-0.5-2.5-1.4-2.5-1.4 0 0 0.1-0.7 2.6 0.9 0.9 0.6 1.2 1.3 1.3 1.7 0.3-0.3 0.7-0.6 1.4-0.6 0.5 0 0.8 0.1 1.1 0.3 0.1-0.4 0.4-1 1.1-1.6 2.1-1.6 2.5-0.7 2.5-0.7 0 0-1.4 0.3-2.3 1.2-0.4 0.3-0.6 1.2-0.7 1.6q0.2 0.2 0.5 0.2c0.6 0.1 1.6 1.1 1 2.1-0.5 0.9-0.3 1.1 0.1 1.7q0 0 0 0c0.4-0.4 0.9-0.9 1-1.1 0-0.3-0.6-0.9-0.6-1.3-0.1-0.4 0.9-1.2 1.1-1.5 0.1-0.3 0.1-0.6 0.2-0.1 0.1 0.4-0.7 1.4-0.7 1.4 0 0 1.1 1.4 0.9 1.6 0 0.1-0.5 0.5-1 1.1 4.3-1.7 14.2-3.7 14.4-0.5 0.2 2.7-3.2 4.7-4.5 4.9-0.8 0.1-2.2-0.1-3.8-0.3zm-14.3-0.3q0 0 0-0.1 0 0-0.1 0 0.1 0.1 0.1 0.1z"/>
						<path id="path814" class="s13" d="m123.5 126.8c-0.2 0.5-1 0.7-1 1.3 0 1-0.1 0.8 0.3 1.6 0.1 0.2 0 0.8 0 1 0.1 0.5-0.1 1-0.2 1.2-0.8 0.7 0.7 2.4-0.2 3.2-0.9 0.8-1.8 2.1-1.8 4.1 0.1 0.1 0.3 0.7 0.4 0.9-0.1 0.8 0.7 0.9 0.6 1.6 0 0.1-0.5 0.6-0.5 0.8 0 0.9 0.6 1 0.9 1.5q0 0 0 0 0 0 0 0c0 0.1 0.2 0.4 0.3 0.5 0.2 0.5 0.6 0.3 0.9 1.2 0.2 0.1 0.1 0-0.1 0-0.1 0-0.2-0.1-0.2-0.1 0.3 1 0.3 1.1 0.9 1.7 0.2 0.2 1 0 1 0.3 0.6 0 0.7 0.1 1-0.3 0.2-0.2 0.9 0 1.1-0.3 0.5-0.5 1.1-1.6 1.2-2.4 0.1-0.1-0.3-0.2-0.3-0.3 0-0.9 0.4-1.3 0.5-1.9 0.1-0.1 0.5-0.5 0.6-0.6 0-0.5 0.7-1.4 0.8-2-1.2-1.6-0.2-2.2-0.4-3.4-0.4-0.7-0.3-0.8-0.8-1.3-0.4-0.4-0.5-0.7-0.4-1 0-0.1 0.3-1 0.3-1.1-0.1-1-0.4-0.8-0.7-1.5-0.1-0.1-0.5-0.2-0.6-0.3-0.1-0.2-0.2-0.1-0.1-0.3 0.1-0.3 0.4-0.4 0.6-0.5 0.2-0.1 0.6-0.4 0.6-0.9-0.2-1.5 0.2-1.8-0.1-2-0.4-0.3-0.8-0.4-0.9-0.6-0.1-0.3-0.3-1.1-0.7-1.3-0.7-0.4-0.7-0.4-0.8-0.4-0.1 0.1-0.2 0.1-0.5 0q-0.1 0-0.2 0c-0.8 0-1 0.7-1.5 1.6z"/>
						<path id="path826" fill-rule="evenodd" class="s6" d="m121.1 139.3c0 0-0.1-1.9 3.9-1.9 4.1 0 3.9 1.8 3.9 1.8 0 0-2.8 0.5-3.8 0.5-1.6-0.2-3.9 0.3-4-0.4z"/>
						<path id="path830" fill-rule="evenodd" class="s6" d="m121.9 141.2c1 0 0.9 0 3.2 0 2.2-0.1 3.4 0.3 3.6 0.8 0.3 0.6-1.2 1.3-3.5 1.3-2.4 0-2.8 0.1-3.2-0.4-0.4-0.4-1.3-1.7-0.1-1.7z"/>
						<path id="path834" fill-rule="evenodd" class="s6" d="m122.7 144.9c2.2-0.1 3-0.4 4.1 0.1 1 0.5 2.2 1 0.7 1.4-1.4 0.5-2.8 0.6-3.7 0.4-0.9-0.1-1.2-0.7-1.4-1.2-0.2-0.6 0.3-0.7 0.3-0.7z"/>
						<path id="path838" fill-rule="evenodd" class="s6" d="m127.7 132q-0.1-0.1-0.1-0.1c1.1-0.8-0.2-2.4 0.2-2.7 0.7-0.7-0.7-2.1-2.5-2-3.1 0.1-2.6 2.4-2.5 3 0.2 0.5 0.4 0.6 0.3 1 0 0.2-0.2 0.4-0.3 0.7-0.2 0.4-0.2 0.9-0.2 0.9 0.1 0.4 0.1 0.9 0.7 1.5 0.4 0.4 0.4 0.8 2.4 0.7 1.5-0.1 1.9-0.6 2.2-1.4 0.3-0.9 0.1-1.2-0.2-1.6z"/>
						<path id="path842" fill-rule="evenodd" class="s1" d="m121.9 131.3c-0.8-0.1-8.8-3.2-10.3-3.2-1.5 0-3.4-0.2-3.8 1.9-0.4 2 2.3 3.1 3 3.2 0.7 0.1 3.7-0.1 8.8 0.2 1.9 0.1 2.5 0.5 2.2-0.2-0.3-0.7 0.1-1.9 0.1-1.9z"/>
						<path id="path846" fill-rule="evenodd" class="s1" d="m120.4 133c-3.2 0.6-4.5 1.1-5.9 1.8-1.4 0.8-3.5 1.8-2.8 2.3 0.7 0.5 2 1.6 4.1 1.1 2-0.6 6.2-3.7 6.2-4.2-0.1-1.6-1.6-1-1.6-1z"/>
						<path id="path850" fill-rule="evenodd" class="s1" d="m128.5 131.1c0.9-0.3 7.8-2.9 11.1-3.2 3.3-0.3 3.5 0.8 3.3 1.2-0.1 0.4-1.2 3.1-3.1 3.6-1.8 0.5-8.1 0-9.8 0.9-1.1 0.7-0.9-0.2-1.1-0.9-0.2-0.7-1-1.5-0.4-1.6z"/>
						<path id="path854" fill-rule="evenodd" class="s1" d="m129.7 132.3c0.8-0.3 5.9 1.8 6.8 2.4 0.9 0.5 2.2 0.8 2 1.4-0.2 0.6-2.5 2.6-3.6 2.2-1.5-0.6-3.2-1.6-4.2-2.3-1-0.7-2.1-1.1-1.8-1.8 0.3-0.8-0.3-1.6 0.8-1.9z"/>
						<path id="path858" fill-rule="evenodd" class="s6" d="m118.6 131.8c-2.5-0.5-5.5-1.1-5.5-1.1l2.4 0.8 3.3 0.3z"/>
						<path id="path862" fill-rule="evenodd" class="s6" d="m131.1 131.5c0 0 5.1-0.6 5.7-0.8 0.5-0.2 1 0 1 0 0 0-1.2 0.6-2.6 0.7-1.4 0.1-4.1 0.1-4.1 0.1z"/>
						<path id="path866" fill-rule="evenodd" class="s6" d="m119 135c0 0-1 0.3-1.9 0.5q-0.2 0.1-0.4 0.1c-0.9 0.3-1.7 0.5-1.8 0.5-0.2 0 1.3 0 2.3-0.4 1-0.4 1.8-0.7 1.8-0.7z"/>
						<path id="path870" fill-rule="evenodd" class="s6" d="m131.7 134.5c0 0 1.7 1.2 2.7 1.6 0.9 0.4 0.4 0.4 0.4 0.4 0 0-0.9-0.3-1.5-0.7-0.6-0.4-1.6-1.3-1.6-1.3z"/>
					</g>
				</g>
			</g>
			<g id="g7524">
				<path id="path454" class="s6" d="m173.5 55.5c0-1.4-2.7-2.4-3.6-3.1 1-1.2 2.5-1.5 3.8-2.3-0.3-1.8-3.7-1.2-5-1.3-3.8-0.1-7.5 0.2-11.3 0.3 1.5-0.8 3.1-1.4 4.8-2.1 0.6-0.2 3.3-0.9 3.5-1.7 0.5-1.9-4.4-1.6-5.3-1.6-0.1-0.9 1.2-2.9-0.5-3-1-0.1-2.4 1.4-3.2 1.8-1.7 0.8-3.5 1.7-5.1 2.8-1.2 0.8-1.3 1.2-2.8 0.6-0.6-0.2-2.2-0.5-3.1-1.3-2.1-2-3.9-3-6.8-3.6-12-2.2-25.2 0.4-34 9.4-0.8 0.8-1.8 1.8-2.1 3-0.2 0.9 0.5 2.3 0.1 3.1-0.1 0.4-1.7 1.1-2 1.4q-0.9 0.6-1.7 1.4c-1.1 1.1-1.9 2.2-2.5 3.6-1.2 2.7-1.4 6.1 0.4 8.6 1.7 2.4 5.3 3.3 7.9 3.9 2.5 0.6 10.7 1.8 17.6 1.1 8.5-0.9 13.7-2.5 17.8-4.3 5.9-2.7 13.1-6.2 16.6-11.8 0.2-0.4 0.5-0.8 0.7-1.2q0.5-0.6 0.8-1.3 0.2-0.8 0.2-1.7 0-0.3 0-0.6 0.9-0.1 1.7-0.1c1.1-0.1 2.2-0.2 3.3-0.2 3.3 0.1 6.6 0.7 9.8 0.7 0-0.1 0-0.3 0-0.5 0-0.1 0 0.1 0 0z"/>
				<path id="path458" fill-rule="evenodd" class="s2" d="m159.3 42.4c0.2 0.4 0 1.5 0.1 2.1 1.2 0.7 3.1 0.2 4.5 0.6-0.8 0.5-1.7 0.8-2.5 1.1-2.5 1.1-4.9 2.2-7.3 3.6-2.4 1.4-4.6 3.1-7 4.6-0.1-1.4-0.5-2.6-0.6-4.1 0.9-0.5 1.8-1.5 3.3-2.5 3.3-2.1 9.5-5.4 9.5-5.4z"/>
				<path id="path478" class="s14" d="m159.9 50q-0.6 0-1.2 0c-1.5 0-3.1 0-4 0.3-1.2 0.5-2.2 1.3-3.2 1.9-0.8 0.6-1.6 1.1-2.3 1.7-0.2 0.2-0.4 0.5-0.4 0.6 3.6-0.2 7.2-0.2 11-0.2 1.9 0 3.8-0.2 5.6-0.1 1.9 0.1 3.7 0.4 5.5 0.3-0.4-1-2.1-1.1-2.1-2.3-0.1-1 1.4-1.2 1.6-2-2.6-0.2-5.3-0.3-8-0.3q-1.2 0-2.5 0.1z"/>
				<path id="path7481" class="s15" d="m121.7 42.4c-3.1 0.8-6.3 2-9.1 3.6-1.4 0.8-2.8 1.6-4.1 2.5-1.2 1-2.4 1.9-3.5 3.2-0.9 1-1.7 2-1.1 3.5 0.5 1.1 2 2.1 3.1 2.6 3.5 1.7 7.4 1.9 11.2 1.8 6.1 0 13-1.3 18.3-4.5 2.5-1.6 5.7-4 7-6.7 0.6-1.2 0.8-2.3 0.5-3.6-0.2-1-0.8-1.2-2-1.6-3.7-1.2-7.8-1.8-11.9-1.8-2.8 0-5.7 0.3-8.4 1z"/>
				<path id="path7479" class="s16" d="m146.4 49.4c0.8-0.7 1.9-1.2 2.6-2.1-0.9-0.5-2-0.6-3-0.7-0.1 0.7 0.2 1.9 0.4 2.8z"/>
				<path id="path500" class="s17" d="m153.5 55.2c-1.3 0-2.6 0.2-3.9 0.1-0.3 0-2-0.3-2.3 0.1-0.2 0.2 0.1 0.9 0 1.6-0.2 1.6-2.5 3.9-4.1 5.2-4 3.2-9.3 5.6-14.3 6.7-5.5 1.2-11.5 2.1-17 0.4-2.2-0.7-4.9-1.7-6.1-3.8-1.2-2.3-1.8-5.5-2.4-8-3.1 1.6-5.8 4.7-6.5 8.2-0.8 3.6 1.3 6.1 4.3 7.4 3.5 1.6 7.4 1.6 11.2 2.1 3.9 0.6 7.8 0.4 11.7 0 3.7-0.3 6.7-0.9 10.8-2.2 3.8-1.1 7.7-2.5 11.1-4.7 3.1-1.9 6.2-4.3 8.8-7 1-1 2.1-2.6 2.6-3.9 0.4-1.2 0.4-1.7-0.6-2-0.4-0.2-0.9-0.3-1.4-0.3-0.7 0-1.4 0.1-1.9 0.1z"/>
				<path id="path442" class="s18" d="m132.4 59.4c-7.5 3.1-15.7 2.9-19.4 2.5-5-0.6-8-3.2-8.8-3.5 0.4 2 1 4 1.4 6 0.2 0.6 0.7 1.1 1 1.6 0.1 0.3 0.8 0.7 1.1 1 0.8 0.7 1.1 0.7 2.1 1.1 1.6 0.8 2.9 1.1 4.8 1.4 1.3 0.2 2.6 0.5 4 0.5 1.3 0 2.7-0.2 4.2-0.3 1.4-0.2 2.7-0.5 4.2-0.8 1.5-0.3 3-0.6 4.3-1 0.3-0.1 1-0.3 1.3-0.4 2-0.8 3.1-1.1 4.8-2 0.5-0.3 1.5-0.9 2-1.2 1.4-0.7 2.2-1.9 3.5-2.4 1.5-1.7 3.5-2.5 3.9-4.6 0.4-1.7 0-2.9-0.3-4.5-0.1-0.7-0.3-1.6-0.4-2.4-0.1-0.7-0.1-2.5-0.7-2.9-0.1-0.1-1.1 7.9-13 11.9z"/>
			</g>
		</g>
	</g>
</svg>